<mxfile host="app.diagrams.net" modified="2023-10-18T22:38:46.848Z" agent="Mozilla/5.0 (Windows NT 10.0; Win64; x64) AppleWebKit/537.36 (KHTML, like Gecko) Chrome/118.0.0.0 Safari/537.36" etag="e1pp3mlkttLwmhDEHof-" version="22.0.4" type="device">
  <diagram name="PÃ¡gina-1" id="kJ2uRfqSZuhs-0CQ3X8s">
    <mxGraphModel dx="2140" dy="1877" grid="0" gridSize="10" guides="1" tooltips="1" connect="1" arrows="1" fold="1" page="1" pageScale="1" pageWidth="827" pageHeight="1169" background="none" math="0" shadow="0">
      <root>
        <mxCell id="0" />
        <mxCell id="1" parent="0" />
        <mxCell id="hn4ZYdpucegocV_tVcTx-158" value="Usuario" style="swimlane;fontStyle=1;align=center;verticalAlign=top;childLayout=stackLayout;horizontal=1;startSize=26;horizontalStack=0;resizeParent=1;resizeParentMax=0;resizeLast=0;collapsible=1;marginBottom=0;whiteSpace=wrap;html=1;" vertex="1" parent="1">
          <mxGeometry x="307" y="-211" width="235" height="216" as="geometry" />
        </mxCell>
        <mxCell id="hn4ZYdpucegocV_tVcTx-159" value="+ nome: string" style="text;strokeColor=none;fillColor=none;align=left;verticalAlign=top;spacingLeft=4;spacingRight=4;overflow=hidden;rotatable=0;points=[[0,0.5],[1,0.5]];portConstraint=eastwest;whiteSpace=wrap;html=1;" vertex="1" parent="hn4ZYdpucegocV_tVcTx-158">
          <mxGeometry y="26" width="235" height="26" as="geometry" />
        </mxCell>
        <mxCell id="hn4ZYdpucegocV_tVcTx-160" value="- telefone: string" style="text;strokeColor=none;fillColor=none;align=left;verticalAlign=top;spacingLeft=4;spacingRight=4;overflow=hidden;rotatable=0;points=[[0,0.5],[1,0.5]];portConstraint=eastwest;whiteSpace=wrap;html=1;" vertex="1" parent="hn4ZYdpucegocV_tVcTx-158">
          <mxGeometry y="52" width="235" height="26" as="geometry" />
        </mxCell>
        <mxCell id="hn4ZYdpucegocV_tVcTx-161" value="# email: string" style="text;strokeColor=none;fillColor=none;align=left;verticalAlign=top;spacingLeft=4;spacingRight=4;overflow=hidden;rotatable=0;points=[[0,0.5],[1,0.5]];portConstraint=eastwest;whiteSpace=wrap;html=1;" vertex="1" parent="hn4ZYdpucegocV_tVcTx-158">
          <mxGeometry y="78" width="235" height="26" as="geometry" />
        </mxCell>
        <mxCell id="hn4ZYdpucegocV_tVcTx-162" value="- senha: string" style="text;strokeColor=none;fillColor=none;align=left;verticalAlign=top;spacingLeft=4;spacingRight=4;overflow=hidden;rotatable=0;points=[[0,0.5],[1,0.5]];portConstraint=eastwest;whiteSpace=wrap;html=1;" vertex="1" parent="hn4ZYdpucegocV_tVcTx-158">
          <mxGeometry y="104" width="235" height="26" as="geometry" />
        </mxCell>
        <mxCell id="hn4ZYdpucegocV_tVcTx-163" value="+ dataNascimento: date" style="text;strokeColor=none;fillColor=none;align=left;verticalAlign=top;spacingLeft=4;spacingRight=4;overflow=hidden;rotatable=0;points=[[0,0.5],[1,0.5]];portConstraint=eastwest;whiteSpace=wrap;html=1;" vertex="1" parent="hn4ZYdpucegocV_tVcTx-158">
          <mxGeometry y="130" width="235" height="26" as="geometry" />
        </mxCell>
        <mxCell id="hn4ZYdpucegocV_tVcTx-164" value="+ cidade: string" style="text;strokeColor=none;fillColor=none;align=left;verticalAlign=top;spacingLeft=4;spacingRight=4;overflow=hidden;rotatable=0;points=[[0,0.5],[1,0.5]];portConstraint=eastwest;whiteSpace=wrap;html=1;" vertex="1" parent="hn4ZYdpucegocV_tVcTx-158">
          <mxGeometry y="156" width="235" height="26" as="geometry" />
        </mxCell>
        <mxCell id="hn4ZYdpucegocV_tVcTx-165" value="+ usuarioAdm: bool" style="text;strokeColor=none;fillColor=none;align=left;verticalAlign=top;spacingLeft=4;spacingRight=4;overflow=hidden;rotatable=0;points=[[0,0.5],[1,0.5]];portConstraint=eastwest;whiteSpace=wrap;html=1;" vertex="1" parent="hn4ZYdpucegocV_tVcTx-158">
          <mxGeometry y="182" width="235" height="26" as="geometry" />
        </mxCell>
        <mxCell id="hn4ZYdpucegocV_tVcTx-166" value="" style="line;strokeWidth=1;fillColor=none;align=left;verticalAlign=middle;spacingTop=-1;spacingLeft=3;spacingRight=3;rotatable=0;labelPosition=right;points=[];portConstraint=eastwest;strokeColor=inherit;" vertex="1" parent="hn4ZYdpucegocV_tVcTx-158">
          <mxGeometry y="208" width="235" height="8" as="geometry" />
        </mxCell>
        <mxCell id="hn4ZYdpucegocV_tVcTx-172" style="edgeStyle=orthogonalEdgeStyle;rounded=0;orthogonalLoop=1;jettySize=auto;html=1;entryX=0;entryY=0.5;entryDx=0;entryDy=0;endArrow=diamondThin;endFill=1;endSize=13;exitX=0.5;exitY=1;exitDx=0;exitDy=0;" edge="1" parent="1" source="hn4ZYdpucegocV_tVcTx-175" target="hn4ZYdpucegocV_tVcTx-206">
          <mxGeometry relative="1" as="geometry">
            <mxPoint x="601.0000000000005" y="265" as="sourcePoint" />
          </mxGeometry>
        </mxCell>
        <mxCell id="hn4ZYdpucegocV_tVcTx-173" style="edgeStyle=orthogonalEdgeStyle;rounded=0;orthogonalLoop=1;jettySize=auto;html=1;endArrow=diamondThin;endFill=1;endSize=13;strokeWidth=1;startSize=13;exitX=0.5;exitY=1;exitDx=0;exitDy=0;" edge="1" parent="1" source="hn4ZYdpucegocV_tVcTx-175" target="hn4ZYdpucegocV_tVcTx-219">
          <mxGeometry relative="1" as="geometry">
            <Array as="points">
              <mxPoint x="259" y="374" />
              <mxPoint x="601" y="374" />
            </Array>
            <mxPoint x="601.0000000000005" y="265" as="sourcePoint" />
          </mxGeometry>
        </mxCell>
        <mxCell id="hn4ZYdpucegocV_tVcTx-174" style="edgeStyle=orthogonalEdgeStyle;rounded=0;orthogonalLoop=1;jettySize=auto;html=1;entryX=0;entryY=0.5;entryDx=0;entryDy=0;endArrow=diamondThin;endFill=1;endSize=13;" edge="1" parent="1" source="hn4ZYdpucegocV_tVcTx-175" target="hn4ZYdpucegocV_tVcTx-206">
          <mxGeometry relative="1" as="geometry">
            <mxPoint x="351" y="683.0000000000001" as="targetPoint" />
          </mxGeometry>
        </mxCell>
        <mxCell id="hn4ZYdpucegocV_tVcTx-175" value="UsuarioGerenciador" style="swimlane;fontStyle=1;align=center;verticalAlign=top;childLayout=stackLayout;horizontal=1;startSize=26;horizontalStack=0;resizeParent=1;resizeParentMax=0;resizeLast=0;collapsible=1;marginBottom=0;whiteSpace=wrap;html=1;" vertex="1" parent="1">
          <mxGeometry x="130" y="182" width="258" height="138" as="geometry" />
        </mxCell>
        <mxCell id="hn4ZYdpucegocV_tVcTx-176" value="- cpnj: string" style="text;strokeColor=none;fillColor=none;align=left;verticalAlign=top;spacingLeft=4;spacingRight=4;overflow=hidden;rotatable=0;points=[[0,0.5],[1,0.5]];portConstraint=eastwest;whiteSpace=wrap;html=1;" vertex="1" parent="hn4ZYdpucegocV_tVcTx-175">
          <mxGeometry y="26" width="258" height="26" as="geometry" />
        </mxCell>
        <mxCell id="hn4ZYdpucegocV_tVcTx-177" value="- usuarioAdmFrota: bool" style="text;strokeColor=none;fillColor=none;align=left;verticalAlign=top;spacingLeft=4;spacingRight=4;overflow=hidden;rotatable=0;points=[[0,0.5],[1,0.5]];portConstraint=eastwest;whiteSpace=wrap;html=1;" vertex="1" parent="hn4ZYdpucegocV_tVcTx-175">
          <mxGeometry y="52" width="258" height="26" as="geometry" />
        </mxCell>
        <mxCell id="hn4ZYdpucegocV_tVcTx-178" value="+&amp;nbsp;nomeEmpresa: string" style="text;strokeColor=none;fillColor=none;align=left;verticalAlign=top;spacingLeft=4;spacingRight=4;overflow=hidden;rotatable=0;points=[[0,0.5],[1,0.5]];portConstraint=eastwest;whiteSpace=wrap;html=1;" vertex="1" parent="hn4ZYdpucegocV_tVcTx-175">
          <mxGeometry y="78" width="258" height="26" as="geometry" />
        </mxCell>
        <mxCell id="hn4ZYdpucegocV_tVcTx-179" value="+ cidadeEmpresa: string" style="text;strokeColor=none;fillColor=none;align=left;verticalAlign=top;spacingLeft=4;spacingRight=4;overflow=hidden;rotatable=0;points=[[0,0.5],[1,0.5]];portConstraint=eastwest;whiteSpace=wrap;html=1;" vertex="1" parent="hn4ZYdpucegocV_tVcTx-175">
          <mxGeometry y="104" width="258" height="26" as="geometry" />
        </mxCell>
        <mxCell id="hn4ZYdpucegocV_tVcTx-180" value="" style="line;strokeWidth=1;fillColor=none;align=left;verticalAlign=middle;spacingTop=-1;spacingLeft=3;spacingRight=3;rotatable=0;labelPosition=right;points=[];portConstraint=eastwest;strokeColor=inherit;" vertex="1" parent="hn4ZYdpucegocV_tVcTx-175">
          <mxGeometry y="130" width="258" height="8" as="geometry" />
        </mxCell>
        <mxCell id="hn4ZYdpucegocV_tVcTx-181" style="edgeStyle=orthogonalEdgeStyle;rounded=0;orthogonalLoop=1;jettySize=auto;html=1;entryX=0;entryY=0.5;entryDx=0;entryDy=0;strokeWidth=1;endArrow=diamondThin;endFill=1;endSize=13;" edge="1" parent="1" source="hn4ZYdpucegocV_tVcTx-185" target="hn4ZYdpucegocV_tVcTx-206">
          <mxGeometry relative="1" as="geometry">
            <Array as="points">
              <mxPoint x="-124" y="371" />
            </Array>
          </mxGeometry>
        </mxCell>
        <mxCell id="hn4ZYdpucegocV_tVcTx-182" style="edgeStyle=orthogonalEdgeStyle;rounded=0;orthogonalLoop=1;jettySize=auto;html=1;entryX=0;entryY=0.5;entryDx=0;entryDy=0;endArrow=diamondThin;endFill=1;endSize=13;" edge="1" parent="1" source="hn4ZYdpucegocV_tVcTx-225" target="hn4ZYdpucegocV_tVcTx-213">
          <mxGeometry relative="1" as="geometry" />
        </mxCell>
        <mxCell id="hn4ZYdpucegocV_tVcTx-183" style="edgeStyle=orthogonalEdgeStyle;rounded=0;orthogonalLoop=1;jettySize=auto;html=1;endArrow=diamondThin;endFill=1;endSize=13;" edge="1" parent="1" source="hn4ZYdpucegocV_tVcTx-185" target="hn4ZYdpucegocV_tVcTx-219">
          <mxGeometry relative="1" as="geometry">
            <Array as="points">
              <mxPoint x="3" y="392" />
              <mxPoint x="601" y="392" />
            </Array>
          </mxGeometry>
        </mxCell>
        <mxCell id="hn4ZYdpucegocV_tVcTx-184" style="edgeStyle=orthogonalEdgeStyle;rounded=0;orthogonalLoop=1;jettySize=auto;html=1;endSize=13;endArrow=diamondThin;endFill=1;" edge="1" parent="1" source="hn4ZYdpucegocV_tVcTx-185" target="hn4ZYdpucegocV_tVcTx-225">
          <mxGeometry relative="1" as="geometry" />
        </mxCell>
        <mxCell id="hn4ZYdpucegocV_tVcTx-185" value="Motorista" style="swimlane;fontStyle=1;align=center;verticalAlign=top;childLayout=stackLayout;horizontal=1;startSize=26;horizontalStack=0;resizeParent=1;resizeParentMax=0;resizeLast=0;collapsible=1;marginBottom=0;whiteSpace=wrap;html=1;" vertex="1" parent="1">
          <mxGeometry x="-238" y="174" width="227" height="60" as="geometry" />
        </mxCell>
        <mxCell id="hn4ZYdpucegocV_tVcTx-186" value="- cpf: string" style="text;strokeColor=none;fillColor=none;align=left;verticalAlign=top;spacingLeft=4;spacingRight=4;overflow=hidden;rotatable=0;points=[[0,0.5],[1,0.5]];portConstraint=eastwest;whiteSpace=wrap;html=1;" vertex="1" parent="hn4ZYdpucegocV_tVcTx-185">
          <mxGeometry y="26" width="227" height="26" as="geometry" />
        </mxCell>
        <mxCell id="hn4ZYdpucegocV_tVcTx-187" value="" style="line;strokeWidth=1;fillColor=none;align=left;verticalAlign=middle;spacingTop=-1;spacingLeft=3;spacingRight=3;rotatable=0;labelPosition=right;points=[];portConstraint=eastwest;strokeColor=inherit;" vertex="1" parent="hn4ZYdpucegocV_tVcTx-185">
          <mxGeometry y="52" width="227" height="8" as="geometry" />
        </mxCell>
        <mxCell id="hn4ZYdpucegocV_tVcTx-188" style="edgeStyle=orthogonalEdgeStyle;rounded=0;orthogonalLoop=1;jettySize=auto;html=1;endArrow=diamond;endFill=0;endSize=13;" edge="1" parent="1" source="hn4ZYdpucegocV_tVcTx-158" target="hn4ZYdpucegocV_tVcTx-197">
          <mxGeometry relative="1" as="geometry" />
        </mxCell>
        <mxCell id="hn4ZYdpucegocV_tVcTx-189" style="edgeStyle=orthogonalEdgeStyle;rounded=0;orthogonalLoop=1;jettySize=auto;html=1;endSize=13;endArrow=diamondThin;endFill=1;" edge="1" parent="1" source="hn4ZYdpucegocV_tVcTx-192" target="hn4ZYdpucegocV_tVcTx-206">
          <mxGeometry relative="1" as="geometry">
            <mxPoint x="800.0799999999999" y="141.84400000000005" as="sourcePoint" />
          </mxGeometry>
        </mxCell>
        <mxCell id="hn4ZYdpucegocV_tVcTx-190" style="edgeStyle=orthogonalEdgeStyle;rounded=0;orthogonalLoop=1;jettySize=auto;html=1;endArrow=block;endFill=0;endSize=13;" edge="1" parent="1" source="hn4ZYdpucegocV_tVcTx-158" target="hn4ZYdpucegocV_tVcTx-175">
          <mxGeometry relative="1" as="geometry">
            <Array as="points">
              <mxPoint x="207" y="-146" />
              <mxPoint x="207" y="30" />
              <mxPoint x="257" y="30" />
            </Array>
          </mxGeometry>
        </mxCell>
        <mxCell id="hn4ZYdpucegocV_tVcTx-191" style="edgeStyle=orthogonalEdgeStyle;rounded=0;orthogonalLoop=1;jettySize=auto;html=1;endArrow=block;endFill=0;strokeWidth=1;endSize=13;" edge="1" parent="1" source="hn4ZYdpucegocV_tVcTx-160" target="hn4ZYdpucegocV_tVcTx-185">
          <mxGeometry relative="1" as="geometry" />
        </mxCell>
        <mxCell id="hn4ZYdpucegocV_tVcTx-192" value="Propaganda" style="swimlane;fontStyle=1;align=center;verticalAlign=top;childLayout=stackLayout;horizontal=1;startSize=30;horizontalStack=0;resizeParent=1;resizeParentMax=0;resizeLast=0;collapsible=1;marginBottom=0;whiteSpace=wrap;html=1;" vertex="1" parent="1">
          <mxGeometry x="682" y="-186" width="240" height="272" as="geometry" />
        </mxCell>
        <mxCell id="hn4ZYdpucegocV_tVcTx-193" value="+ nomeTipoPropaganda: string" style="text;strokeColor=none;fillColor=none;align=left;verticalAlign=top;spacingLeft=4;spacingRight=4;overflow=hidden;rotatable=0;points=[[0,0.5],[1,0.5]];portConstraint=eastwest;whiteSpace=wrap;html=1;" vertex="1" parent="hn4ZYdpucegocV_tVcTx-192">
          <mxGeometry y="30" width="240" height="26" as="geometry" />
        </mxCell>
        <mxCell id="hn4ZYdpucegocV_tVcTx-194" value="+ titulo: string" style="text;strokeColor=none;fillColor=none;align=left;verticalAlign=top;spacingLeft=4;spacingRight=4;overflow=hidden;rotatable=0;points=[[0,0.5],[1,0.5]];portConstraint=eastwest;whiteSpace=wrap;html=1;" vertex="1" parent="hn4ZYdpucegocV_tVcTx-192">
          <mxGeometry y="56" width="240" height="26" as="geometry" />
        </mxCell>
        <mxCell id="hn4ZYdpucegocV_tVcTx-195" value="+ url: string" style="text;strokeColor=none;fillColor=none;align=left;verticalAlign=top;spacingLeft=4;spacingRight=4;overflow=hidden;rotatable=0;points=[[0,0.5],[1,0.5]];portConstraint=eastwest;whiteSpace=wrap;html=1;" vertex="1" parent="hn4ZYdpucegocV_tVcTx-192">
          <mxGeometry y="82" width="240" height="26" as="geometry" />
        </mxCell>
        <mxCell id="hn4ZYdpucegocV_tVcTx-196" value="+ descricao: string" style="text;strokeColor=none;fillColor=none;align=left;verticalAlign=top;spacingLeft=4;spacingRight=4;overflow=hidden;rotatable=0;points=[[0,0.5],[1,0.5]];portConstraint=eastwest;whiteSpace=wrap;html=1;" vertex="1" parent="hn4ZYdpucegocV_tVcTx-192">
          <mxGeometry y="108" width="240" height="26" as="geometry" />
        </mxCell>
        <mxCell id="hn4ZYdpucegocV_tVcTx-197" value="+ img: formData" style="text;strokeColor=none;fillColor=none;align=left;verticalAlign=top;spacingLeft=4;spacingRight=4;overflow=hidden;rotatable=0;points=[[0,0.5],[1,0.5]];portConstraint=eastwest;whiteSpace=wrap;html=1;" vertex="1" parent="hn4ZYdpucegocV_tVcTx-192">
          <mxGeometry y="134" width="240" height="26" as="geometry" />
        </mxCell>
        <mxCell id="hn4ZYdpucegocV_tVcTx-198" value="+ publicoAlvo: string" style="text;strokeColor=none;fillColor=none;align=left;verticalAlign=top;spacingLeft=4;spacingRight=4;overflow=hidden;rotatable=0;points=[[0,0.5],[1,0.5]];portConstraint=eastwest;whiteSpace=wrap;html=1;" vertex="1" parent="hn4ZYdpucegocV_tVcTx-192">
          <mxGeometry y="160" width="240" height="26" as="geometry" />
        </mxCell>
        <mxCell id="hn4ZYdpucegocV_tVcTx-199" value="+ dataLimite: date" style="text;strokeColor=none;fillColor=none;align=left;verticalAlign=top;spacingLeft=4;spacingRight=4;overflow=hidden;rotatable=0;points=[[0,0.5],[1,0.5]];portConstraint=eastwest;whiteSpace=wrap;html=1;" vertex="1" parent="hn4ZYdpucegocV_tVcTx-192">
          <mxGeometry y="186" width="240" height="26" as="geometry" />
        </mxCell>
        <mxCell id="hn4ZYdpucegocV_tVcTx-200" value="+ preco: float" style="text;strokeColor=none;fillColor=none;align=left;verticalAlign=top;spacingLeft=4;spacingRight=4;overflow=hidden;rotatable=0;points=[[0,0.5],[1,0.5]];portConstraint=eastwest;whiteSpace=wrap;html=1;" vertex="1" parent="hn4ZYdpucegocV_tVcTx-192">
          <mxGeometry y="212" width="240" height="26" as="geometry" />
        </mxCell>
        <mxCell id="hn4ZYdpucegocV_tVcTx-201" value="+ importancia: bool" style="text;strokeColor=none;fillColor=none;align=left;verticalAlign=top;spacingLeft=4;spacingRight=4;overflow=hidden;rotatable=0;points=[[0,0.5],[1,0.5]];portConstraint=eastwest;whiteSpace=wrap;html=1;" vertex="1" parent="hn4ZYdpucegocV_tVcTx-192">
          <mxGeometry y="238" width="240" height="26" as="geometry" />
        </mxCell>
        <mxCell id="hn4ZYdpucegocV_tVcTx-202" value="" style="line;strokeWidth=1;fillColor=none;align=left;verticalAlign=middle;spacingTop=-1;spacingLeft=3;spacingRight=3;rotatable=0;labelPosition=right;points=[];portConstraint=eastwest;strokeColor=inherit;" vertex="1" parent="hn4ZYdpucegocV_tVcTx-192">
          <mxGeometry y="264" width="240" height="8" as="geometry" />
        </mxCell>
        <mxCell id="hn4ZYdpucegocV_tVcTx-205" value="Interesse" style="swimlane;fontStyle=1;align=center;verticalAlign=top;childLayout=stackLayout;horizontal=1;startSize=26;horizontalStack=0;resizeParent=1;resizeParentMax=0;resizeLast=0;collapsible=1;marginBottom=0;whiteSpace=wrap;html=1;" vertex="1" parent="1">
          <mxGeometry x="802" y="332" width="219" height="60" as="geometry" />
        </mxCell>
        <mxCell id="hn4ZYdpucegocV_tVcTx-206" value="+ meioContatoEmail: bool" style="text;strokeColor=none;fillColor=none;align=left;verticalAlign=top;spacingLeft=4;spacingRight=4;overflow=hidden;rotatable=0;points=[[0,0.5],[1,0.5]];portConstraint=eastwest;whiteSpace=wrap;html=1;" vertex="1" parent="hn4ZYdpucegocV_tVcTx-205">
          <mxGeometry y="26" width="219" height="26" as="geometry" />
        </mxCell>
        <mxCell id="hn4ZYdpucegocV_tVcTx-207" value="" style="line;strokeWidth=1;fillColor=none;align=left;verticalAlign=middle;spacingTop=-1;spacingLeft=3;spacingRight=3;rotatable=0;labelPosition=right;points=[];portConstraint=eastwest;strokeColor=inherit;" vertex="1" parent="hn4ZYdpucegocV_tVcTx-205">
          <mxGeometry y="52" width="219" height="8" as="geometry" />
        </mxCell>
        <mxCell id="hn4ZYdpucegocV_tVcTx-209" value="CheckList" style="swimlane;fontStyle=1;align=center;verticalAlign=top;childLayout=stackLayout;horizontal=1;startSize=26;horizontalStack=0;resizeParent=1;resizeParentMax=0;resizeLast=0;collapsible=1;marginBottom=0;whiteSpace=wrap;html=1;" vertex="1" parent="1">
          <mxGeometry x="249" y="443" width="245" height="190" as="geometry" />
        </mxCell>
        <mxCell id="hn4ZYdpucegocV_tVcTx-216" value="" style="line;strokeWidth=1;fillColor=none;align=left;verticalAlign=middle;spacingTop=-1;spacingLeft=3;spacingRight=3;rotatable=0;labelPosition=right;points=[];portConstraint=eastwest;strokeColor=inherit;" vertex="1" parent="hn4ZYdpucegocV_tVcTx-209">
          <mxGeometry y="26" width="245" height="8" as="geometry" />
        </mxCell>
        <mxCell id="hn4ZYdpucegocV_tVcTx-210" value="+ arCondicionadoOk: bool" style="text;strokeColor=none;fillColor=none;align=left;verticalAlign=top;spacingLeft=4;spacingRight=4;overflow=hidden;rotatable=0;points=[[0,0.5],[1,0.5]];portConstraint=eastwest;whiteSpace=wrap;html=1;" vertex="1" parent="hn4ZYdpucegocV_tVcTx-209">
          <mxGeometry y="34" width="245" height="26" as="geometry" />
        </mxCell>
        <mxCell id="hn4ZYdpucegocV_tVcTx-211" value="+ freioOk: bool" style="text;strokeColor=none;fillColor=none;align=left;verticalAlign=top;spacingLeft=4;spacingRight=4;overflow=hidden;rotatable=0;points=[[0,0.5],[1,0.5]];portConstraint=eastwest;whiteSpace=wrap;html=1;" vertex="1" parent="hn4ZYdpucegocV_tVcTx-209">
          <mxGeometry y="60" width="245" height="26" as="geometry" />
        </mxCell>
        <mxCell id="hn4ZYdpucegocV_tVcTx-212" value="+ combustivelOk: bool" style="text;strokeColor=none;fillColor=none;align=left;verticalAlign=top;spacingLeft=4;spacingRight=4;overflow=hidden;rotatable=0;points=[[0,0.5],[1,0.5]];portConstraint=eastwest;whiteSpace=wrap;html=1;" vertex="1" parent="hn4ZYdpucegocV_tVcTx-209">
          <mxGeometry y="86" width="245" height="26" as="geometry" />
        </mxCell>
        <mxCell id="hn4ZYdpucegocV_tVcTx-213" value="+ documentosOk: bool" style="text;strokeColor=none;fillColor=none;align=left;verticalAlign=top;spacingLeft=4;spacingRight=4;overflow=hidden;rotatable=0;points=[[0,0.5],[1,0.5]];portConstraint=eastwest;whiteSpace=wrap;html=1;" vertex="1" parent="hn4ZYdpucegocV_tVcTx-209">
          <mxGeometry y="112" width="245" height="26" as="geometry" />
        </mxCell>
        <mxCell id="hn4ZYdpucegocV_tVcTx-214" value="+ oleoOk: bool" style="text;strokeColor=none;fillColor=none;align=left;verticalAlign=top;spacingLeft=4;spacingRight=4;overflow=hidden;rotatable=0;points=[[0,0.5],[1,0.5]];portConstraint=eastwest;whiteSpace=wrap;html=1;" vertex="1" parent="hn4ZYdpucegocV_tVcTx-209">
          <mxGeometry y="138" width="245" height="26" as="geometry" />
        </mxCell>
        <mxCell id="hn4ZYdpucegocV_tVcTx-215" value="+ fotoPneu: formData" style="text;strokeColor=none;fillColor=none;align=left;verticalAlign=top;spacingLeft=4;spacingRight=4;overflow=hidden;rotatable=0;points=[[0,0.5],[1,0.5]];portConstraint=eastwest;whiteSpace=wrap;html=1;rounded=0;glass=0;" vertex="1" parent="hn4ZYdpucegocV_tVcTx-209">
          <mxGeometry y="164" width="245" height="26" as="geometry" />
        </mxCell>
        <mxCell id="hn4ZYdpucegocV_tVcTx-219" value="Frota" style="swimlane;fontStyle=1;align=center;verticalAlign=top;childLayout=stackLayout;horizontal=1;startSize=26;horizontalStack=0;resizeParent=1;resizeParentMax=0;resizeLast=0;collapsible=1;marginBottom=0;whiteSpace=wrap;html=1;" vertex="1" parent="1">
          <mxGeometry x="511" y="447" width="276" height="34" as="geometry" />
        </mxCell>
        <mxCell id="hn4ZYdpucegocV_tVcTx-220" value="" style="line;strokeWidth=1;fillColor=none;align=left;verticalAlign=middle;spacingTop=-1;spacingLeft=3;spacingRight=3;rotatable=0;labelPosition=right;points=[];portConstraint=eastwest;strokeColor=inherit;" vertex="1" parent="hn4ZYdpucegocV_tVcTx-219">
          <mxGeometry y="26" width="276" height="8" as="geometry" />
        </mxCell>
        <mxCell id="hn4ZYdpucegocV_tVcTx-225" value="Veiculo" style="swimlane;fontStyle=1;align=center;verticalAlign=top;childLayout=stackLayout;horizontal=1;startSize=26;horizontalStack=0;resizeParent=1;resizeParentMax=0;resizeLast=0;collapsible=1;marginBottom=0;whiteSpace=wrap;html=1;" vertex="1" parent="1">
          <mxGeometry x="-329" y="408" width="227" height="112" as="geometry" />
        </mxCell>
        <mxCell id="hn4ZYdpucegocV_tVcTx-226" value="- placaCaminhao: string" style="text;strokeColor=none;fillColor=none;align=left;verticalAlign=top;spacingLeft=4;spacingRight=4;overflow=hidden;rotatable=0;points=[[0,0.5],[1,0.5]];portConstraint=eastwest;whiteSpace=wrap;html=1;" vertex="1" parent="hn4ZYdpucegocV_tVcTx-225">
          <mxGeometry y="26" width="227" height="26" as="geometry" />
        </mxCell>
        <mxCell id="hn4ZYdpucegocV_tVcTx-227" value="- codigoChassi: string" style="text;strokeColor=none;fillColor=none;align=left;verticalAlign=top;spacingLeft=4;spacingRight=4;overflow=hidden;rotatable=0;points=[[0,0.5],[1,0.5]];portConstraint=eastwest;whiteSpace=wrap;html=1;" vertex="1" parent="hn4ZYdpucegocV_tVcTx-225">
          <mxGeometry y="52" width="227" height="26" as="geometry" />
        </mxCell>
        <mxCell id="hn4ZYdpucegocV_tVcTx-228" value="+ marcaCaminhao: string" style="text;strokeColor=none;fillColor=none;align=left;verticalAlign=top;spacingLeft=4;spacingRight=4;overflow=hidden;rotatable=0;points=[[0,0.5],[1,0.5]];portConstraint=eastwest;whiteSpace=wrap;html=1;" vertex="1" parent="hn4ZYdpucegocV_tVcTx-225">
          <mxGeometry y="78" width="227" height="26" as="geometry" />
        </mxCell>
        <mxCell id="hn4ZYdpucegocV_tVcTx-229" value="" style="line;strokeWidth=1;fillColor=none;align=left;verticalAlign=middle;spacingTop=-1;spacingLeft=3;spacingRight=3;rotatable=0;labelPosition=right;points=[];portConstraint=eastwest;strokeColor=inherit;" vertex="1" parent="hn4ZYdpucegocV_tVcTx-225">
          <mxGeometry y="104" width="227" height="8" as="geometry" />
        </mxCell>
        <mxCell id="hn4ZYdpucegocV_tVcTx-231" style="edgeStyle=orthogonalEdgeStyle;rounded=0;orthogonalLoop=1;jettySize=auto;html=1;endArrow=diamond;endFill=0;endSize=13;" edge="1" parent="1" source="hn4ZYdpucegocV_tVcTx-158" target="hn4ZYdpucegocV_tVcTx-205">
          <mxGeometry relative="1" as="geometry">
            <mxPoint x="798" y="-16" as="sourcePoint" />
            <mxPoint x="1049" y="97" as="targetPoint" />
            <Array as="points">
              <mxPoint x="571" y="-103" />
              <mxPoint x="571" y="203" />
              <mxPoint x="912" y="203" />
            </Array>
          </mxGeometry>
        </mxCell>
        <mxCell id="hn4ZYdpucegocV_tVcTx-234" value="Propaganda" style="shape=table;startSize=30;container=1;collapsible=1;childLayout=tableLayout;fixedRows=1;rowLines=0;fontStyle=1;align=center;resizeLast=1;html=1;" vertex="1" parent="1">
          <mxGeometry x="414" y="709" width="271" height="303.1499938964844" as="geometry" />
        </mxCell>
        <mxCell id="hn4ZYdpucegocV_tVcTx-235" value="" style="shape=tableRow;horizontal=0;startSize=0;swimlaneHead=0;swimlaneBody=0;fillColor=none;collapsible=0;dropTarget=0;points=[[0,0.5],[1,0.5]];portConstraint=eastwest;top=0;left=0;right=0;bottom=1;" vertex="1" parent="hn4ZYdpucegocV_tVcTx-234">
          <mxGeometry y="30" width="271" height="30" as="geometry" />
        </mxCell>
        <mxCell id="hn4ZYdpucegocV_tVcTx-236" value="PK" style="shape=partialRectangle;connectable=0;fillColor=none;top=0;left=0;bottom=0;right=0;fontStyle=1;overflow=hidden;whiteSpace=wrap;html=1;" vertex="1" parent="hn4ZYdpucegocV_tVcTx-235">
          <mxGeometry width="30" height="30" as="geometry">
            <mxRectangle width="30" height="30" as="alternateBounds" />
          </mxGeometry>
        </mxCell>
        <mxCell id="hn4ZYdpucegocV_tVcTx-237" value="idPropaganda" style="shape=partialRectangle;connectable=0;fillColor=none;top=0;left=0;bottom=0;right=0;align=left;spacingLeft=6;fontStyle=5;overflow=hidden;whiteSpace=wrap;html=1;" vertex="1" parent="hn4ZYdpucegocV_tVcTx-235">
          <mxGeometry x="30" width="241" height="30" as="geometry">
            <mxRectangle width="241" height="30" as="alternateBounds" />
          </mxGeometry>
        </mxCell>
        <mxCell id="hn4ZYdpucegocV_tVcTx-238" value="" style="shape=tableRow;horizontal=0;startSize=0;swimlaneHead=0;swimlaneBody=0;fillColor=none;collapsible=0;dropTarget=0;points=[[0,0.5],[1,0.5]];portConstraint=eastwest;top=0;left=0;right=0;bottom=0;" vertex="1" parent="hn4ZYdpucegocV_tVcTx-234">
          <mxGeometry y="60" width="271" height="27" as="geometry" />
        </mxCell>
        <mxCell id="hn4ZYdpucegocV_tVcTx-239" value="" style="shape=partialRectangle;connectable=0;fillColor=none;top=0;left=0;bottom=0;right=0;editable=1;overflow=hidden;whiteSpace=wrap;html=1;" vertex="1" parent="hn4ZYdpucegocV_tVcTx-238">
          <mxGeometry width="30" height="27" as="geometry">
            <mxRectangle width="30" height="27" as="alternateBounds" />
          </mxGeometry>
        </mxCell>
        <mxCell id="hn4ZYdpucegocV_tVcTx-240" value="nomeTipoPropaganda: varchar(20)" style="shape=partialRectangle;connectable=0;fillColor=none;top=0;left=0;bottom=0;right=0;align=left;spacingLeft=6;overflow=hidden;whiteSpace=wrap;html=1;" vertex="1" parent="hn4ZYdpucegocV_tVcTx-238">
          <mxGeometry x="30" width="241" height="27" as="geometry">
            <mxRectangle width="241" height="27" as="alternateBounds" />
          </mxGeometry>
        </mxCell>
        <mxCell id="hn4ZYdpucegocV_tVcTx-247" value="" style="shape=tableRow;horizontal=0;startSize=0;swimlaneHead=0;swimlaneBody=0;fillColor=none;collapsible=0;dropTarget=0;points=[[0,0.5],[1,0.5]];portConstraint=eastwest;top=0;left=0;right=0;bottom=0;" vertex="1" parent="hn4ZYdpucegocV_tVcTx-234">
          <mxGeometry y="87" width="271" height="27" as="geometry" />
        </mxCell>
        <mxCell id="hn4ZYdpucegocV_tVcTx-248" value="" style="shape=partialRectangle;connectable=0;fillColor=none;top=0;left=0;bottom=0;right=0;editable=1;overflow=hidden;whiteSpace=wrap;html=1;" vertex="1" parent="hn4ZYdpucegocV_tVcTx-247">
          <mxGeometry width="30" height="27" as="geometry">
            <mxRectangle width="30" height="27" as="alternateBounds" />
          </mxGeometry>
        </mxCell>
        <mxCell id="hn4ZYdpucegocV_tVcTx-249" value="titulo: varchar(30)" style="shape=partialRectangle;connectable=0;fillColor=none;top=0;left=0;bottom=0;right=0;align=left;spacingLeft=6;overflow=hidden;whiteSpace=wrap;html=1;" vertex="1" parent="hn4ZYdpucegocV_tVcTx-247">
          <mxGeometry x="30" width="241" height="27" as="geometry">
            <mxRectangle width="241" height="27" as="alternateBounds" />
          </mxGeometry>
        </mxCell>
        <mxCell id="hn4ZYdpucegocV_tVcTx-250" value="" style="shape=tableRow;horizontal=0;startSize=0;swimlaneHead=0;swimlaneBody=0;fillColor=none;collapsible=0;dropTarget=0;points=[[0,0.5],[1,0.5]];portConstraint=eastwest;top=0;left=0;right=0;bottom=0;" vertex="1" parent="hn4ZYdpucegocV_tVcTx-234">
          <mxGeometry y="114" width="271" height="27" as="geometry" />
        </mxCell>
        <mxCell id="hn4ZYdpucegocV_tVcTx-251" value="" style="shape=partialRectangle;connectable=0;fillColor=none;top=0;left=0;bottom=0;right=0;editable=1;overflow=hidden;whiteSpace=wrap;html=1;" vertex="1" parent="hn4ZYdpucegocV_tVcTx-250">
          <mxGeometry width="30" height="27" as="geometry">
            <mxRectangle width="30" height="27" as="alternateBounds" />
          </mxGeometry>
        </mxCell>
        <mxCell id="hn4ZYdpucegocV_tVcTx-252" value="url: varchar(200)" style="shape=partialRectangle;connectable=0;fillColor=none;top=0;left=0;bottom=0;right=0;align=left;spacingLeft=6;overflow=hidden;whiteSpace=wrap;html=1;" vertex="1" parent="hn4ZYdpucegocV_tVcTx-250">
          <mxGeometry x="30" width="241" height="27" as="geometry">
            <mxRectangle width="241" height="27" as="alternateBounds" />
          </mxGeometry>
        </mxCell>
        <mxCell id="hn4ZYdpucegocV_tVcTx-253" value="" style="shape=tableRow;horizontal=0;startSize=0;swimlaneHead=0;swimlaneBody=0;fillColor=none;collapsible=0;dropTarget=0;points=[[0,0.5],[1,0.5]];portConstraint=eastwest;top=0;left=0;right=0;bottom=0;" vertex="1" parent="hn4ZYdpucegocV_tVcTx-234">
          <mxGeometry y="141" width="271" height="27" as="geometry" />
        </mxCell>
        <mxCell id="hn4ZYdpucegocV_tVcTx-254" value="" style="shape=partialRectangle;connectable=0;fillColor=none;top=0;left=0;bottom=0;right=0;editable=1;overflow=hidden;whiteSpace=wrap;html=1;" vertex="1" parent="hn4ZYdpucegocV_tVcTx-253">
          <mxGeometry width="30" height="27" as="geometry">
            <mxRectangle width="30" height="27" as="alternateBounds" />
          </mxGeometry>
        </mxCell>
        <mxCell id="hn4ZYdpucegocV_tVcTx-255" value="descricao: varchar(100)" style="shape=partialRectangle;connectable=0;fillColor=none;top=0;left=0;bottom=0;right=0;align=left;spacingLeft=6;overflow=hidden;whiteSpace=wrap;html=1;" vertex="1" parent="hn4ZYdpucegocV_tVcTx-253">
          <mxGeometry x="30" width="241" height="27" as="geometry">
            <mxRectangle width="241" height="27" as="alternateBounds" />
          </mxGeometry>
        </mxCell>
        <mxCell id="hn4ZYdpucegocV_tVcTx-256" value="" style="shape=tableRow;horizontal=0;startSize=0;swimlaneHead=0;swimlaneBody=0;fillColor=none;collapsible=0;dropTarget=0;points=[[0,0.5],[1,0.5]];portConstraint=eastwest;top=0;left=0;right=0;bottom=0;" vertex="1" parent="hn4ZYdpucegocV_tVcTx-234">
          <mxGeometry y="168" width="271" height="27" as="geometry" />
        </mxCell>
        <mxCell id="hn4ZYdpucegocV_tVcTx-257" value="" style="shape=partialRectangle;connectable=0;fillColor=none;top=0;left=0;bottom=0;right=0;editable=1;overflow=hidden;whiteSpace=wrap;html=1;" vertex="1" parent="hn4ZYdpucegocV_tVcTx-256">
          <mxGeometry width="30" height="27" as="geometry">
            <mxRectangle width="30" height="27" as="alternateBounds" />
          </mxGeometry>
        </mxCell>
        <mxCell id="hn4ZYdpucegocV_tVcTx-258" value="img: blob" style="shape=partialRectangle;connectable=0;fillColor=none;top=0;left=0;bottom=0;right=0;align=left;spacingLeft=6;overflow=hidden;whiteSpace=wrap;html=1;" vertex="1" parent="hn4ZYdpucegocV_tVcTx-256">
          <mxGeometry x="30" width="241" height="27" as="geometry">
            <mxRectangle width="241" height="27" as="alternateBounds" />
          </mxGeometry>
        </mxCell>
        <mxCell id="hn4ZYdpucegocV_tVcTx-259" value="" style="shape=tableRow;horizontal=0;startSize=0;swimlaneHead=0;swimlaneBody=0;fillColor=none;collapsible=0;dropTarget=0;points=[[0,0.5],[1,0.5]];portConstraint=eastwest;top=0;left=0;right=0;bottom=0;" vertex="1" parent="hn4ZYdpucegocV_tVcTx-234">
          <mxGeometry y="195" width="271" height="27" as="geometry" />
        </mxCell>
        <mxCell id="hn4ZYdpucegocV_tVcTx-260" value="" style="shape=partialRectangle;connectable=0;fillColor=none;top=0;left=0;bottom=0;right=0;editable=1;overflow=hidden;whiteSpace=wrap;html=1;" vertex="1" parent="hn4ZYdpucegocV_tVcTx-259">
          <mxGeometry width="30" height="27" as="geometry">
            <mxRectangle width="30" height="27" as="alternateBounds" />
          </mxGeometry>
        </mxCell>
        <mxCell id="hn4ZYdpucegocV_tVcTx-261" value="publicoAlvo: varchar(40)" style="shape=partialRectangle;connectable=0;fillColor=none;top=0;left=0;bottom=0;right=0;align=left;spacingLeft=6;overflow=hidden;whiteSpace=wrap;html=1;" vertex="1" parent="hn4ZYdpucegocV_tVcTx-259">
          <mxGeometry x="30" width="241" height="27" as="geometry">
            <mxRectangle width="241" height="27" as="alternateBounds" />
          </mxGeometry>
        </mxCell>
        <mxCell id="hn4ZYdpucegocV_tVcTx-262" value="" style="shape=tableRow;horizontal=0;startSize=0;swimlaneHead=0;swimlaneBody=0;fillColor=none;collapsible=0;dropTarget=0;points=[[0,0.5],[1,0.5]];portConstraint=eastwest;top=0;left=0;right=0;bottom=0;" vertex="1" parent="hn4ZYdpucegocV_tVcTx-234">
          <mxGeometry y="222" width="271" height="27" as="geometry" />
        </mxCell>
        <mxCell id="hn4ZYdpucegocV_tVcTx-263" value="" style="shape=partialRectangle;connectable=0;fillColor=none;top=0;left=0;bottom=0;right=0;editable=1;overflow=hidden;whiteSpace=wrap;html=1;" vertex="1" parent="hn4ZYdpucegocV_tVcTx-262">
          <mxGeometry width="30" height="27" as="geometry">
            <mxRectangle width="30" height="27" as="alternateBounds" />
          </mxGeometry>
        </mxCell>
        <mxCell id="hn4ZYdpucegocV_tVcTx-264" value="dataLimite: date" style="shape=partialRectangle;connectable=0;fillColor=none;top=0;left=0;bottom=0;right=0;align=left;spacingLeft=6;overflow=hidden;whiteSpace=wrap;html=1;" vertex="1" parent="hn4ZYdpucegocV_tVcTx-262">
          <mxGeometry x="30" width="241" height="27" as="geometry">
            <mxRectangle width="241" height="27" as="alternateBounds" />
          </mxGeometry>
        </mxCell>
        <mxCell id="hn4ZYdpucegocV_tVcTx-265" value="" style="shape=tableRow;horizontal=0;startSize=0;swimlaneHead=0;swimlaneBody=0;fillColor=none;collapsible=0;dropTarget=0;points=[[0,0.5],[1,0.5]];portConstraint=eastwest;top=0;left=0;right=0;bottom=0;" vertex="1" parent="hn4ZYdpucegocV_tVcTx-234">
          <mxGeometry y="249" width="271" height="27" as="geometry" />
        </mxCell>
        <mxCell id="hn4ZYdpucegocV_tVcTx-266" value="" style="shape=partialRectangle;connectable=0;fillColor=none;top=0;left=0;bottom=0;right=0;editable=1;overflow=hidden;whiteSpace=wrap;html=1;" vertex="1" parent="hn4ZYdpucegocV_tVcTx-265">
          <mxGeometry width="30" height="27" as="geometry">
            <mxRectangle width="30" height="27" as="alternateBounds" />
          </mxGeometry>
        </mxCell>
        <mxCell id="hn4ZYdpucegocV_tVcTx-267" value="preco: float" style="shape=partialRectangle;connectable=0;fillColor=none;top=0;left=0;bottom=0;right=0;align=left;spacingLeft=6;overflow=hidden;whiteSpace=wrap;html=1;" vertex="1" parent="hn4ZYdpucegocV_tVcTx-265">
          <mxGeometry x="30" width="241" height="27" as="geometry">
            <mxRectangle width="241" height="27" as="alternateBounds" />
          </mxGeometry>
        </mxCell>
        <mxCell id="hn4ZYdpucegocV_tVcTx-274" value="" style="shape=tableRow;horizontal=0;startSize=0;swimlaneHead=0;swimlaneBody=0;fillColor=none;collapsible=0;dropTarget=0;points=[[0,0.5],[1,0.5]];portConstraint=eastwest;top=0;left=0;right=0;bottom=0;" vertex="1" parent="hn4ZYdpucegocV_tVcTx-234">
          <mxGeometry y="276" width="271" height="27" as="geometry" />
        </mxCell>
        <mxCell id="hn4ZYdpucegocV_tVcTx-275" value="" style="shape=partialRectangle;connectable=0;fillColor=none;top=0;left=0;bottom=0;right=0;editable=1;overflow=hidden;whiteSpace=wrap;html=1;" vertex="1" parent="hn4ZYdpucegocV_tVcTx-274">
          <mxGeometry width="30" height="27" as="geometry">
            <mxRectangle width="30" height="27" as="alternateBounds" />
          </mxGeometry>
        </mxCell>
        <mxCell id="hn4ZYdpucegocV_tVcTx-276" value="importancia: bit" style="shape=partialRectangle;connectable=0;fillColor=none;top=0;left=0;bottom=0;right=0;align=left;spacingLeft=6;overflow=hidden;whiteSpace=wrap;html=1;" vertex="1" parent="hn4ZYdpucegocV_tVcTx-274">
          <mxGeometry x="30" width="241" height="27" as="geometry">
            <mxRectangle width="241" height="27" as="alternateBounds" />
          </mxGeometry>
        </mxCell>
        <mxCell id="hn4ZYdpucegocV_tVcTx-277" value="Interesse" style="shape=table;startSize=30;container=1;collapsible=1;childLayout=tableLayout;fixedRows=1;rowLines=0;fontStyle=1;align=center;resizeLast=1;html=1;" vertex="1" parent="1">
          <mxGeometry x="376" y="1265" width="180" height="150" as="geometry" />
        </mxCell>
        <mxCell id="hn4ZYdpucegocV_tVcTx-278" value="" style="shape=tableRow;horizontal=0;startSize=0;swimlaneHead=0;swimlaneBody=0;fillColor=none;collapsible=0;dropTarget=0;points=[[0,0.5],[1,0.5]];portConstraint=eastwest;top=0;left=0;right=0;bottom=1;" vertex="1" parent="hn4ZYdpucegocV_tVcTx-277">
          <mxGeometry y="30" width="180" height="30" as="geometry" />
        </mxCell>
        <mxCell id="hn4ZYdpucegocV_tVcTx-279" value="PK" style="shape=partialRectangle;connectable=0;fillColor=none;top=0;left=0;bottom=0;right=0;fontStyle=1;overflow=hidden;whiteSpace=wrap;html=1;" vertex="1" parent="hn4ZYdpucegocV_tVcTx-278">
          <mxGeometry width="30" height="30" as="geometry">
            <mxRectangle width="30" height="30" as="alternateBounds" />
          </mxGeometry>
        </mxCell>
        <mxCell id="hn4ZYdpucegocV_tVcTx-280" value="idInteresse" style="shape=partialRectangle;connectable=0;fillColor=none;top=0;left=0;bottom=0;right=0;align=left;spacingLeft=6;fontStyle=5;overflow=hidden;whiteSpace=wrap;html=1;" vertex="1" parent="hn4ZYdpucegocV_tVcTx-278">
          <mxGeometry x="30" width="150" height="30" as="geometry">
            <mxRectangle width="150" height="30" as="alternateBounds" />
          </mxGeometry>
        </mxCell>
        <mxCell id="hn4ZYdpucegocV_tVcTx-465" value="" style="shape=tableRow;horizontal=0;startSize=0;swimlaneHead=0;swimlaneBody=0;fillColor=none;collapsible=0;dropTarget=0;points=[[0,0.5],[1,0.5]];portConstraint=eastwest;top=0;left=0;right=0;bottom=1;" vertex="1" parent="hn4ZYdpucegocV_tVcTx-277">
          <mxGeometry y="60" width="180" height="30" as="geometry" />
        </mxCell>
        <mxCell id="hn4ZYdpucegocV_tVcTx-466" value="FK" style="shape=partialRectangle;connectable=0;fillColor=none;top=0;left=0;bottom=0;right=0;fontStyle=1;overflow=hidden;whiteSpace=wrap;html=1;" vertex="1" parent="hn4ZYdpucegocV_tVcTx-465">
          <mxGeometry width="30" height="30" as="geometry">
            <mxRectangle width="30" height="30" as="alternateBounds" />
          </mxGeometry>
        </mxCell>
        <mxCell id="hn4ZYdpucegocV_tVcTx-467" value="idPropaganda" style="shape=partialRectangle;connectable=0;fillColor=none;top=0;left=0;bottom=0;right=0;align=left;spacingLeft=6;fontStyle=5;overflow=hidden;whiteSpace=wrap;html=1;" vertex="1" parent="hn4ZYdpucegocV_tVcTx-465">
          <mxGeometry x="30" width="150" height="30" as="geometry">
            <mxRectangle width="150" height="30" as="alternateBounds" />
          </mxGeometry>
        </mxCell>
        <mxCell id="hn4ZYdpucegocV_tVcTx-471" value="" style="shape=tableRow;horizontal=0;startSize=0;swimlaneHead=0;swimlaneBody=0;fillColor=none;collapsible=0;dropTarget=0;points=[[0,0.5],[1,0.5]];portConstraint=eastwest;top=0;left=0;right=0;bottom=1;" vertex="1" parent="hn4ZYdpucegocV_tVcTx-277">
          <mxGeometry y="90" width="180" height="30" as="geometry" />
        </mxCell>
        <mxCell id="hn4ZYdpucegocV_tVcTx-472" value="FK" style="shape=partialRectangle;connectable=0;fillColor=none;top=0;left=0;bottom=0;right=0;fontStyle=1;overflow=hidden;whiteSpace=wrap;html=1;" vertex="1" parent="hn4ZYdpucegocV_tVcTx-471">
          <mxGeometry width="30" height="30" as="geometry">
            <mxRectangle width="30" height="30" as="alternateBounds" />
          </mxGeometry>
        </mxCell>
        <mxCell id="hn4ZYdpucegocV_tVcTx-473" value="idUsuario" style="shape=partialRectangle;connectable=0;fillColor=none;top=0;left=0;bottom=0;right=0;align=left;spacingLeft=6;fontStyle=5;overflow=hidden;whiteSpace=wrap;html=1;" vertex="1" parent="hn4ZYdpucegocV_tVcTx-471">
          <mxGeometry x="30" width="150" height="30" as="geometry">
            <mxRectangle width="150" height="30" as="alternateBounds" />
          </mxGeometry>
        </mxCell>
        <mxCell id="hn4ZYdpucegocV_tVcTx-512" value="" style="shape=tableRow;horizontal=0;startSize=0;swimlaneHead=0;swimlaneBody=0;fillColor=none;collapsible=0;dropTarget=0;points=[[0,0.5],[1,0.5]];portConstraint=eastwest;top=0;left=0;right=0;bottom=1;" vertex="1" parent="hn4ZYdpucegocV_tVcTx-277">
          <mxGeometry y="120" width="180" height="30" as="geometry" />
        </mxCell>
        <mxCell id="hn4ZYdpucegocV_tVcTx-513" value="" style="shape=partialRectangle;connectable=0;fillColor=none;top=0;left=0;bottom=0;right=0;fontStyle=1;overflow=hidden;whiteSpace=wrap;html=1;" vertex="1" parent="hn4ZYdpucegocV_tVcTx-512">
          <mxGeometry width="30" height="30" as="geometry">
            <mxRectangle width="30" height="30" as="alternateBounds" />
          </mxGeometry>
        </mxCell>
        <mxCell id="hn4ZYdpucegocV_tVcTx-514" value="&lt;span style=&quot;font-weight: normal;&quot;&gt;meioContatoEmail: bit&lt;/span&gt;" style="shape=partialRectangle;connectable=0;fillColor=none;top=0;left=0;bottom=0;right=0;align=left;spacingLeft=6;fontStyle=5;overflow=hidden;whiteSpace=wrap;html=1;" vertex="1" parent="hn4ZYdpucegocV_tVcTx-512">
          <mxGeometry x="30" width="150" height="30" as="geometry">
            <mxRectangle width="150" height="30" as="alternateBounds" />
          </mxGeometry>
        </mxCell>
        <mxCell id="hn4ZYdpucegocV_tVcTx-290" value="Usuario" style="shape=table;startSize=30;container=1;collapsible=1;childLayout=tableLayout;fixedRows=1;rowLines=0;fontStyle=1;align=center;resizeLast=1;html=1;" vertex="1" parent="1">
          <mxGeometry x="95" y="706" width="180" height="270" as="geometry" />
        </mxCell>
        <mxCell id="hn4ZYdpucegocV_tVcTx-291" value="" style="shape=tableRow;horizontal=0;startSize=0;swimlaneHead=0;swimlaneBody=0;fillColor=none;collapsible=0;dropTarget=0;points=[[0,0.5],[1,0.5]];portConstraint=eastwest;top=0;left=0;right=0;bottom=1;" vertex="1" parent="hn4ZYdpucegocV_tVcTx-290">
          <mxGeometry y="30" width="180" height="30" as="geometry" />
        </mxCell>
        <mxCell id="hn4ZYdpucegocV_tVcTx-292" value="PK" style="shape=partialRectangle;connectable=0;fillColor=none;top=0;left=0;bottom=0;right=0;fontStyle=1;overflow=hidden;whiteSpace=wrap;html=1;" vertex="1" parent="hn4ZYdpucegocV_tVcTx-291">
          <mxGeometry width="30" height="30" as="geometry">
            <mxRectangle width="30" height="30" as="alternateBounds" />
          </mxGeometry>
        </mxCell>
        <mxCell id="hn4ZYdpucegocV_tVcTx-293" value="idUsuario" style="shape=partialRectangle;connectable=0;fillColor=none;top=0;left=0;bottom=0;right=0;align=left;spacingLeft=6;fontStyle=5;overflow=hidden;whiteSpace=wrap;html=1;" vertex="1" parent="hn4ZYdpucegocV_tVcTx-291">
          <mxGeometry x="30" width="150" height="30" as="geometry">
            <mxRectangle width="150" height="30" as="alternateBounds" />
          </mxGeometry>
        </mxCell>
        <mxCell id="hn4ZYdpucegocV_tVcTx-294" value="" style="shape=tableRow;horizontal=0;startSize=0;swimlaneHead=0;swimlaneBody=0;fillColor=none;collapsible=0;dropTarget=0;points=[[0,0.5],[1,0.5]];portConstraint=eastwest;top=0;left=0;right=0;bottom=0;" vertex="1" parent="hn4ZYdpucegocV_tVcTx-290">
          <mxGeometry y="60" width="180" height="30" as="geometry" />
        </mxCell>
        <mxCell id="hn4ZYdpucegocV_tVcTx-295" value="" style="shape=partialRectangle;connectable=0;fillColor=none;top=0;left=0;bottom=0;right=0;editable=1;overflow=hidden;whiteSpace=wrap;html=1;" vertex="1" parent="hn4ZYdpucegocV_tVcTx-294">
          <mxGeometry width="30" height="30" as="geometry">
            <mxRectangle width="30" height="30" as="alternateBounds" />
          </mxGeometry>
        </mxCell>
        <mxCell id="hn4ZYdpucegocV_tVcTx-296" value="nome: varchar(50)" style="shape=partialRectangle;connectable=0;fillColor=none;top=0;left=0;bottom=0;right=0;align=left;spacingLeft=6;overflow=hidden;whiteSpace=wrap;html=1;" vertex="1" parent="hn4ZYdpucegocV_tVcTx-294">
          <mxGeometry x="30" width="150" height="30" as="geometry">
            <mxRectangle width="150" height="30" as="alternateBounds" />
          </mxGeometry>
        </mxCell>
        <mxCell id="hn4ZYdpucegocV_tVcTx-297" value="" style="shape=tableRow;horizontal=0;startSize=0;swimlaneHead=0;swimlaneBody=0;fillColor=none;collapsible=0;dropTarget=0;points=[[0,0.5],[1,0.5]];portConstraint=eastwest;top=0;left=0;right=0;bottom=0;" vertex="1" parent="hn4ZYdpucegocV_tVcTx-290">
          <mxGeometry y="90" width="180" height="30" as="geometry" />
        </mxCell>
        <mxCell id="hn4ZYdpucegocV_tVcTx-298" value="" style="shape=partialRectangle;connectable=0;fillColor=none;top=0;left=0;bottom=0;right=0;editable=1;overflow=hidden;whiteSpace=wrap;html=1;" vertex="1" parent="hn4ZYdpucegocV_tVcTx-297">
          <mxGeometry width="30" height="30" as="geometry">
            <mxRectangle width="30" height="30" as="alternateBounds" />
          </mxGeometry>
        </mxCell>
        <mxCell id="hn4ZYdpucegocV_tVcTx-299" value="telefone: char()" style="shape=partialRectangle;connectable=0;fillColor=none;top=0;left=0;bottom=0;right=0;align=left;spacingLeft=6;overflow=hidden;whiteSpace=wrap;html=1;" vertex="1" parent="hn4ZYdpucegocV_tVcTx-297">
          <mxGeometry x="30" width="150" height="30" as="geometry">
            <mxRectangle width="150" height="30" as="alternateBounds" />
          </mxGeometry>
        </mxCell>
        <mxCell id="hn4ZYdpucegocV_tVcTx-300" value="" style="shape=tableRow;horizontal=0;startSize=0;swimlaneHead=0;swimlaneBody=0;fillColor=none;collapsible=0;dropTarget=0;points=[[0,0.5],[1,0.5]];portConstraint=eastwest;top=0;left=0;right=0;bottom=0;" vertex="1" parent="hn4ZYdpucegocV_tVcTx-290">
          <mxGeometry y="120" width="180" height="30" as="geometry" />
        </mxCell>
        <mxCell id="hn4ZYdpucegocV_tVcTx-301" value="" style="shape=partialRectangle;connectable=0;fillColor=none;top=0;left=0;bottom=0;right=0;editable=1;overflow=hidden;whiteSpace=wrap;html=1;" vertex="1" parent="hn4ZYdpucegocV_tVcTx-300">
          <mxGeometry width="30" height="30" as="geometry">
            <mxRectangle width="30" height="30" as="alternateBounds" />
          </mxGeometry>
        </mxCell>
        <mxCell id="hn4ZYdpucegocV_tVcTx-302" value="email: varchar()" style="shape=partialRectangle;connectable=0;fillColor=none;top=0;left=0;bottom=0;right=0;align=left;spacingLeft=6;overflow=hidden;whiteSpace=wrap;html=1;" vertex="1" parent="hn4ZYdpucegocV_tVcTx-300">
          <mxGeometry x="30" width="150" height="30" as="geometry">
            <mxRectangle width="150" height="30" as="alternateBounds" />
          </mxGeometry>
        </mxCell>
        <mxCell id="hn4ZYdpucegocV_tVcTx-303" value="" style="shape=tableRow;horizontal=0;startSize=0;swimlaneHead=0;swimlaneBody=0;fillColor=none;collapsible=0;dropTarget=0;points=[[0,0.5],[1,0.5]];portConstraint=eastwest;top=0;left=0;right=0;bottom=0;" vertex="1" parent="hn4ZYdpucegocV_tVcTx-290">
          <mxGeometry y="150" width="180" height="30" as="geometry" />
        </mxCell>
        <mxCell id="hn4ZYdpucegocV_tVcTx-304" value="" style="shape=partialRectangle;connectable=0;fillColor=none;top=0;left=0;bottom=0;right=0;editable=1;overflow=hidden;whiteSpace=wrap;html=1;" vertex="1" parent="hn4ZYdpucegocV_tVcTx-303">
          <mxGeometry width="30" height="30" as="geometry">
            <mxRectangle width="30" height="30" as="alternateBounds" />
          </mxGeometry>
        </mxCell>
        <mxCell id="hn4ZYdpucegocV_tVcTx-305" value="senha: varchar()" style="shape=partialRectangle;connectable=0;fillColor=none;top=0;left=0;bottom=0;right=0;align=left;spacingLeft=6;overflow=hidden;whiteSpace=wrap;html=1;" vertex="1" parent="hn4ZYdpucegocV_tVcTx-303">
          <mxGeometry x="30" width="150" height="30" as="geometry">
            <mxRectangle width="150" height="30" as="alternateBounds" />
          </mxGeometry>
        </mxCell>
        <mxCell id="hn4ZYdpucegocV_tVcTx-306" value="" style="shape=tableRow;horizontal=0;startSize=0;swimlaneHead=0;swimlaneBody=0;fillColor=none;collapsible=0;dropTarget=0;points=[[0,0.5],[1,0.5]];portConstraint=eastwest;top=0;left=0;right=0;bottom=0;" vertex="1" parent="hn4ZYdpucegocV_tVcTx-290">
          <mxGeometry y="180" width="180" height="30" as="geometry" />
        </mxCell>
        <mxCell id="hn4ZYdpucegocV_tVcTx-307" value="" style="shape=partialRectangle;connectable=0;fillColor=none;top=0;left=0;bottom=0;right=0;editable=1;overflow=hidden;whiteSpace=wrap;html=1;" vertex="1" parent="hn4ZYdpucegocV_tVcTx-306">
          <mxGeometry width="30" height="30" as="geometry">
            <mxRectangle width="30" height="30" as="alternateBounds" />
          </mxGeometry>
        </mxCell>
        <mxCell id="hn4ZYdpucegocV_tVcTx-308" value="dataNascimento: date" style="shape=partialRectangle;connectable=0;fillColor=none;top=0;left=0;bottom=0;right=0;align=left;spacingLeft=6;overflow=hidden;whiteSpace=wrap;html=1;" vertex="1" parent="hn4ZYdpucegocV_tVcTx-306">
          <mxGeometry x="30" width="150" height="30" as="geometry">
            <mxRectangle width="150" height="30" as="alternateBounds" />
          </mxGeometry>
        </mxCell>
        <mxCell id="hn4ZYdpucegocV_tVcTx-309" value="" style="shape=tableRow;horizontal=0;startSize=0;swimlaneHead=0;swimlaneBody=0;fillColor=none;collapsible=0;dropTarget=0;points=[[0,0.5],[1,0.5]];portConstraint=eastwest;top=0;left=0;right=0;bottom=0;" vertex="1" parent="hn4ZYdpucegocV_tVcTx-290">
          <mxGeometry y="210" width="180" height="30" as="geometry" />
        </mxCell>
        <mxCell id="hn4ZYdpucegocV_tVcTx-310" value="" style="shape=partialRectangle;connectable=0;fillColor=none;top=0;left=0;bottom=0;right=0;editable=1;overflow=hidden;whiteSpace=wrap;html=1;" vertex="1" parent="hn4ZYdpucegocV_tVcTx-309">
          <mxGeometry width="30" height="30" as="geometry">
            <mxRectangle width="30" height="30" as="alternateBounds" />
          </mxGeometry>
        </mxCell>
        <mxCell id="hn4ZYdpucegocV_tVcTx-311" value="cidade: varchar(50)" style="shape=partialRectangle;connectable=0;fillColor=none;top=0;left=0;bottom=0;right=0;align=left;spacingLeft=6;overflow=hidden;whiteSpace=wrap;html=1;" vertex="1" parent="hn4ZYdpucegocV_tVcTx-309">
          <mxGeometry x="30" width="150" height="30" as="geometry">
            <mxRectangle width="150" height="30" as="alternateBounds" />
          </mxGeometry>
        </mxCell>
        <mxCell id="hn4ZYdpucegocV_tVcTx-312" value="" style="shape=tableRow;horizontal=0;startSize=0;swimlaneHead=0;swimlaneBody=0;fillColor=none;collapsible=0;dropTarget=0;points=[[0,0.5],[1,0.5]];portConstraint=eastwest;top=0;left=0;right=0;bottom=0;" vertex="1" parent="hn4ZYdpucegocV_tVcTx-290">
          <mxGeometry y="240" width="180" height="30" as="geometry" />
        </mxCell>
        <mxCell id="hn4ZYdpucegocV_tVcTx-313" value="" style="shape=partialRectangle;connectable=0;fillColor=none;top=0;left=0;bottom=0;right=0;editable=1;overflow=hidden;whiteSpace=wrap;html=1;" vertex="1" parent="hn4ZYdpucegocV_tVcTx-312">
          <mxGeometry width="30" height="30" as="geometry">
            <mxRectangle width="30" height="30" as="alternateBounds" />
          </mxGeometry>
        </mxCell>
        <mxCell id="hn4ZYdpucegocV_tVcTx-314" value="usuarioAdm: bool" style="shape=partialRectangle;connectable=0;fillColor=none;top=0;left=0;bottom=0;right=0;align=left;spacingLeft=6;overflow=hidden;whiteSpace=wrap;html=1;" vertex="1" parent="hn4ZYdpucegocV_tVcTx-312">
          <mxGeometry x="30" width="150" height="30" as="geometry">
            <mxRectangle width="150" height="30" as="alternateBounds" />
          </mxGeometry>
        </mxCell>
        <mxCell id="hn4ZYdpucegocV_tVcTx-428" style="edgeStyle=orthogonalEdgeStyle;rounded=0;orthogonalLoop=1;jettySize=auto;html=1;endArrow=ERoneToMany;endFill=0;" edge="1" parent="1" source="hn4ZYdpucegocV_tVcTx-315" target="hn4ZYdpucegocV_tVcTx-277">
          <mxGeometry relative="1" as="geometry">
            <Array as="points">
              <mxPoint x="466" y="1217" />
            </Array>
          </mxGeometry>
        </mxCell>
        <mxCell id="hn4ZYdpucegocV_tVcTx-315" value="UsuarioGerenciador" style="shape=table;startSize=30;container=1;collapsible=1;childLayout=tableLayout;fixedRows=1;rowLines=0;fontStyle=1;align=center;resizeLast=1;html=1;" vertex="1" parent="1">
          <mxGeometry x="74" y="1040" width="196" height="219.36842105263167" as="geometry" />
        </mxCell>
        <mxCell id="hn4ZYdpucegocV_tVcTx-316" value="" style="shape=tableRow;horizontal=0;startSize=0;swimlaneHead=0;swimlaneBody=0;fillColor=none;collapsible=0;dropTarget=0;points=[[0,0.5],[1,0.5]];portConstraint=eastwest;top=0;left=0;right=0;bottom=1;" vertex="1" parent="hn4ZYdpucegocV_tVcTx-315">
          <mxGeometry y="30" width="196" height="35" as="geometry" />
        </mxCell>
        <mxCell id="hn4ZYdpucegocV_tVcTx-317" value="PK" style="shape=partialRectangle;connectable=0;fillColor=none;top=0;left=0;bottom=0;right=0;fontStyle=1;overflow=hidden;whiteSpace=wrap;html=1;" vertex="1" parent="hn4ZYdpucegocV_tVcTx-316">
          <mxGeometry width="26.08701490319315" height="35" as="geometry">
            <mxRectangle width="26.08701490319315" height="35" as="alternateBounds" />
          </mxGeometry>
        </mxCell>
        <mxCell id="hn4ZYdpucegocV_tVcTx-318" value="idUsuarioGerenciador" style="shape=partialRectangle;connectable=0;fillColor=none;top=0;left=0;bottom=0;right=0;align=left;spacingLeft=6;fontStyle=5;overflow=hidden;whiteSpace=wrap;html=1;" vertex="1" parent="hn4ZYdpucegocV_tVcTx-316">
          <mxGeometry x="26.08701490319315" width="169.91298509680684" height="35" as="geometry">
            <mxRectangle width="169.91298509680684" height="35" as="alternateBounds" />
          </mxGeometry>
        </mxCell>
        <mxCell id="hn4ZYdpucegocV_tVcTx-319" value="" style="shape=tableRow;horizontal=0;startSize=0;swimlaneHead=0;swimlaneBody=0;fillColor=none;collapsible=0;dropTarget=0;points=[[0,0.5],[1,0.5]];portConstraint=eastwest;top=0;left=0;right=0;bottom=0;swimlaneFillColor=none;swimlaneLine=0;perimeterSpacing=1;" vertex="1" parent="hn4ZYdpucegocV_tVcTx-315">
          <mxGeometry y="65" width="196" height="34" as="geometry" />
        </mxCell>
        <mxCell id="hn4ZYdpucegocV_tVcTx-320" value="&lt;b&gt;FK&lt;/b&gt;" style="shape=partialRectangle;connectable=0;fillColor=none;top=0;left=0;bottom=0;right=0;editable=1;overflow=hidden;whiteSpace=wrap;html=1;" vertex="1" parent="hn4ZYdpucegocV_tVcTx-319">
          <mxGeometry width="26.08701490319315" height="34" as="geometry">
            <mxRectangle width="26.08701490319315" height="34" as="alternateBounds" />
          </mxGeometry>
        </mxCell>
        <mxCell id="hn4ZYdpucegocV_tVcTx-321" value="&lt;b&gt;idUsuario&lt;/b&gt;" style="shape=partialRectangle;connectable=0;fillColor=none;top=0;left=0;bottom=0;right=0;align=left;spacingLeft=6;overflow=hidden;whiteSpace=wrap;html=1;" vertex="1" parent="hn4ZYdpucegocV_tVcTx-319">
          <mxGeometry x="26.08701490319315" width="169.91298509680684" height="34" as="geometry">
            <mxRectangle width="169.91298509680684" height="34" as="alternateBounds" />
          </mxGeometry>
        </mxCell>
        <mxCell id="hn4ZYdpucegocV_tVcTx-322" value="" style="shape=tableRow;horizontal=0;startSize=0;swimlaneHead=0;swimlaneBody=0;fillColor=none;collapsible=0;dropTarget=0;points=[[0,0.5],[1,0.5]];portConstraint=eastwest;top=0;left=0;right=0;bottom=0;" vertex="1" parent="hn4ZYdpucegocV_tVcTx-315">
          <mxGeometry y="99" width="196" height="30" as="geometry" />
        </mxCell>
        <mxCell id="hn4ZYdpucegocV_tVcTx-323" value="" style="shape=partialRectangle;connectable=0;fillColor=none;top=0;left=0;bottom=0;right=0;editable=1;overflow=hidden;whiteSpace=wrap;html=1;" vertex="1" parent="hn4ZYdpucegocV_tVcTx-322">
          <mxGeometry width="26.08701490319315" height="30" as="geometry">
            <mxRectangle width="26.08701490319315" height="30" as="alternateBounds" />
          </mxGeometry>
        </mxCell>
        <mxCell id="hn4ZYdpucegocV_tVcTx-324" value="usuarioAdmFrota: bit" style="shape=partialRectangle;connectable=0;fillColor=none;top=0;left=0;bottom=0;right=0;align=left;spacingLeft=6;overflow=hidden;whiteSpace=wrap;html=1;" vertex="1" parent="hn4ZYdpucegocV_tVcTx-322">
          <mxGeometry x="26.08701490319315" width="169.91298509680684" height="30" as="geometry">
            <mxRectangle width="169.91298509680684" height="30" as="alternateBounds" />
          </mxGeometry>
        </mxCell>
        <mxCell id="hn4ZYdpucegocV_tVcTx-325" value="" style="shape=tableRow;horizontal=0;startSize=0;swimlaneHead=0;swimlaneBody=0;fillColor=none;collapsible=0;dropTarget=0;points=[[0,0.5],[1,0.5]];portConstraint=eastwest;top=0;left=0;right=0;bottom=0;" vertex="1" parent="hn4ZYdpucegocV_tVcTx-315">
          <mxGeometry y="129" width="196" height="30" as="geometry" />
        </mxCell>
        <mxCell id="hn4ZYdpucegocV_tVcTx-326" value="" style="shape=partialRectangle;connectable=0;fillColor=none;top=0;left=0;bottom=0;right=0;editable=1;overflow=hidden;whiteSpace=wrap;html=1;" vertex="1" parent="hn4ZYdpucegocV_tVcTx-325">
          <mxGeometry width="26.08701490319315" height="30" as="geometry">
            <mxRectangle width="26.08701490319315" height="30" as="alternateBounds" />
          </mxGeometry>
        </mxCell>
        <mxCell id="hn4ZYdpucegocV_tVcTx-327" value="nomeEmpresa: varchar(50)" style="shape=partialRectangle;connectable=0;fillColor=none;top=0;left=0;bottom=0;right=0;align=left;spacingLeft=6;overflow=hidden;whiteSpace=wrap;html=1;" vertex="1" parent="hn4ZYdpucegocV_tVcTx-325">
          <mxGeometry x="26.08701490319315" width="169.91298509680684" height="30" as="geometry">
            <mxRectangle width="169.91298509680684" height="30" as="alternateBounds" />
          </mxGeometry>
        </mxCell>
        <mxCell id="hn4ZYdpucegocV_tVcTx-328" value="" style="shape=tableRow;horizontal=0;startSize=0;swimlaneHead=0;swimlaneBody=0;fillColor=none;collapsible=0;dropTarget=0;points=[[0,0.5],[1,0.5]];portConstraint=eastwest;top=0;left=0;right=0;bottom=0;" vertex="1" parent="hn4ZYdpucegocV_tVcTx-315">
          <mxGeometry y="159" width="196" height="30" as="geometry" />
        </mxCell>
        <mxCell id="hn4ZYdpucegocV_tVcTx-329" value="" style="shape=partialRectangle;connectable=0;fillColor=none;top=0;left=0;bottom=0;right=0;editable=1;overflow=hidden;whiteSpace=wrap;html=1;" vertex="1" parent="hn4ZYdpucegocV_tVcTx-328">
          <mxGeometry width="26.08701490319315" height="30" as="geometry">
            <mxRectangle width="26.08701490319315" height="30" as="alternateBounds" />
          </mxGeometry>
        </mxCell>
        <mxCell id="hn4ZYdpucegocV_tVcTx-330" value="cidadeEmpresa: varchar(50)" style="shape=partialRectangle;connectable=0;fillColor=none;top=0;left=0;bottom=0;right=0;align=left;spacingLeft=6;overflow=hidden;whiteSpace=wrap;html=1;" vertex="1" parent="hn4ZYdpucegocV_tVcTx-328">
          <mxGeometry x="26.08701490319315" width="169.91298509680684" height="30" as="geometry">
            <mxRectangle width="169.91298509680684" height="30" as="alternateBounds" />
          </mxGeometry>
        </mxCell>
        <mxCell id="hn4ZYdpucegocV_tVcTx-521" value="" style="shape=tableRow;horizontal=0;startSize=0;swimlaneHead=0;swimlaneBody=0;fillColor=none;collapsible=0;dropTarget=0;points=[[0,0.5],[1,0.5]];portConstraint=eastwest;top=0;left=0;right=0;bottom=0;" vertex="1" parent="hn4ZYdpucegocV_tVcTx-315">
          <mxGeometry y="189" width="196" height="30" as="geometry" />
        </mxCell>
        <mxCell id="hn4ZYdpucegocV_tVcTx-522" value="" style="shape=partialRectangle;connectable=0;fillColor=none;top=0;left=0;bottom=0;right=0;editable=1;overflow=hidden;whiteSpace=wrap;html=1;" vertex="1" parent="hn4ZYdpucegocV_tVcTx-521">
          <mxGeometry width="26.08701490319315" height="30" as="geometry">
            <mxRectangle width="26.08701490319315" height="30" as="alternateBounds" />
          </mxGeometry>
        </mxCell>
        <mxCell id="hn4ZYdpucegocV_tVcTx-523" value="cnpj: char()" style="shape=partialRectangle;connectable=0;fillColor=none;top=0;left=0;bottom=0;right=0;align=left;spacingLeft=6;overflow=hidden;whiteSpace=wrap;html=1;" vertex="1" parent="hn4ZYdpucegocV_tVcTx-521">
          <mxGeometry x="26.08701490319315" width="169.91298509680684" height="30" as="geometry">
            <mxRectangle width="169.91298509680684" height="30" as="alternateBounds" />
          </mxGeometry>
        </mxCell>
        <mxCell id="hn4ZYdpucegocV_tVcTx-340" value="Frota" style="shape=table;startSize=20;container=1;collapsible=1;childLayout=tableLayout;fixedRows=1;rowLines=0;fontStyle=1;align=center;resizeLast=1;html=1;" vertex="1" parent="1">
          <mxGeometry x="698" y="1073" width="168" height="60" as="geometry" />
        </mxCell>
        <mxCell id="hn4ZYdpucegocV_tVcTx-341" value="" style="shape=tableRow;horizontal=0;startSize=0;swimlaneHead=0;swimlaneBody=0;fillColor=none;collapsible=0;dropTarget=0;points=[[0,0.5],[1,0.5]];portConstraint=eastwest;top=0;left=0;right=0;bottom=1;" vertex="1" parent="hn4ZYdpucegocV_tVcTx-340">
          <mxGeometry y="20" width="168" height="30" as="geometry" />
        </mxCell>
        <mxCell id="hn4ZYdpucegocV_tVcTx-342" value="PK" style="shape=partialRectangle;connectable=0;fillColor=none;top=0;left=0;bottom=0;right=0;fontStyle=1;overflow=hidden;whiteSpace=wrap;html=1;" vertex="1" parent="hn4ZYdpucegocV_tVcTx-341">
          <mxGeometry width="30" height="30" as="geometry">
            <mxRectangle width="30" height="30" as="alternateBounds" />
          </mxGeometry>
        </mxCell>
        <mxCell id="hn4ZYdpucegocV_tVcTx-343" value="idFrota" style="shape=partialRectangle;connectable=0;fillColor=none;top=0;left=0;bottom=0;right=0;align=left;spacingLeft=6;fontStyle=5;overflow=hidden;whiteSpace=wrap;html=1;" vertex="1" parent="hn4ZYdpucegocV_tVcTx-341">
          <mxGeometry x="30" width="138" height="30" as="geometry">
            <mxRectangle width="138" height="30" as="alternateBounds" />
          </mxGeometry>
        </mxCell>
        <mxCell id="hn4ZYdpucegocV_tVcTx-415" style="edgeStyle=orthogonalEdgeStyle;rounded=0;orthogonalLoop=1;jettySize=auto;html=1;endArrow=ERmandOne;endFill=0;startArrow=ERmandOne;startFill=0;" edge="1" parent="1" source="hn4ZYdpucegocV_tVcTx-360" target="hn4ZYdpucegocV_tVcTx-376">
          <mxGeometry relative="1" as="geometry" />
        </mxCell>
        <mxCell id="hn4ZYdpucegocV_tVcTx-360" value="Motorista" style="shape=table;startSize=30;container=1;collapsible=1;childLayout=tableLayout;fixedRows=1;rowLines=0;fontStyle=1;align=center;resizeLast=1;html=1;" vertex="1" parent="1">
          <mxGeometry x="-218" y="964" width="196" height="120" as="geometry" />
        </mxCell>
        <mxCell id="hn4ZYdpucegocV_tVcTx-361" value="" style="shape=tableRow;horizontal=0;startSize=0;swimlaneHead=0;swimlaneBody=0;fillColor=none;collapsible=0;dropTarget=0;points=[[0,0.5],[1,0.5]];portConstraint=eastwest;top=0;left=0;right=0;bottom=1;" vertex="1" parent="hn4ZYdpucegocV_tVcTx-360">
          <mxGeometry y="30" width="196" height="30" as="geometry" />
        </mxCell>
        <mxCell id="hn4ZYdpucegocV_tVcTx-362" value="PK" style="shape=partialRectangle;connectable=0;fillColor=none;top=0;left=0;bottom=0;right=0;fontStyle=1;overflow=hidden;whiteSpace=wrap;html=1;" vertex="1" parent="hn4ZYdpucegocV_tVcTx-361">
          <mxGeometry width="30" height="30" as="geometry">
            <mxRectangle width="30" height="30" as="alternateBounds" />
          </mxGeometry>
        </mxCell>
        <mxCell id="hn4ZYdpucegocV_tVcTx-363" value="idMotorista" style="shape=partialRectangle;connectable=0;fillColor=none;top=0;left=0;bottom=0;right=0;align=left;spacingLeft=6;fontStyle=5;overflow=hidden;whiteSpace=wrap;html=1;" vertex="1" parent="hn4ZYdpucegocV_tVcTx-361">
          <mxGeometry x="30" width="166" height="30" as="geometry">
            <mxRectangle width="166" height="30" as="alternateBounds" />
          </mxGeometry>
        </mxCell>
        <mxCell id="hn4ZYdpucegocV_tVcTx-364" value="" style="shape=tableRow;horizontal=0;startSize=0;swimlaneHead=0;swimlaneBody=0;fillColor=none;collapsible=0;dropTarget=0;points=[[0,0.5],[1,0.5]];portConstraint=eastwest;top=0;left=0;right=0;bottom=0;" vertex="1" parent="hn4ZYdpucegocV_tVcTx-360">
          <mxGeometry y="60" width="196" height="30" as="geometry" />
        </mxCell>
        <mxCell id="hn4ZYdpucegocV_tVcTx-365" value="&lt;b&gt;PK&lt;/b&gt;" style="shape=partialRectangle;connectable=0;fillColor=none;top=0;left=0;bottom=0;right=0;editable=1;overflow=hidden;whiteSpace=wrap;html=1;" vertex="1" parent="hn4ZYdpucegocV_tVcTx-364">
          <mxGeometry width="30" height="30" as="geometry">
            <mxRectangle width="30" height="30" as="alternateBounds" />
          </mxGeometry>
        </mxCell>
        <mxCell id="hn4ZYdpucegocV_tVcTx-366" value="&lt;b&gt;idMotorista&lt;/b&gt;" style="shape=partialRectangle;connectable=0;fillColor=none;top=0;left=0;bottom=0;right=0;align=left;spacingLeft=6;overflow=hidden;whiteSpace=wrap;html=1;" vertex="1" parent="hn4ZYdpucegocV_tVcTx-364">
          <mxGeometry x="30" width="166" height="30" as="geometry">
            <mxRectangle width="166" height="30" as="alternateBounds" />
          </mxGeometry>
        </mxCell>
        <mxCell id="hn4ZYdpucegocV_tVcTx-549" value="" style="shape=tableRow;horizontal=0;startSize=0;swimlaneHead=0;swimlaneBody=0;fillColor=none;collapsible=0;dropTarget=0;points=[[0,0.5],[1,0.5]];portConstraint=eastwest;top=0;left=0;right=0;bottom=1;" vertex="1" parent="hn4ZYdpucegocV_tVcTx-360">
          <mxGeometry y="90" width="196" height="30" as="geometry" />
        </mxCell>
        <mxCell id="hn4ZYdpucegocV_tVcTx-550" value="" style="shape=partialRectangle;connectable=0;fillColor=none;top=0;left=0;bottom=0;right=0;fontStyle=1;overflow=hidden;whiteSpace=wrap;html=1;" vertex="1" parent="hn4ZYdpucegocV_tVcTx-549">
          <mxGeometry width="30" height="30" as="geometry">
            <mxRectangle width="30" height="30" as="alternateBounds" />
          </mxGeometry>
        </mxCell>
        <mxCell id="hn4ZYdpucegocV_tVcTx-551" value="&lt;span style=&quot;font-weight: normal;&quot;&gt;cpf: char()&lt;/span&gt;" style="shape=partialRectangle;connectable=0;fillColor=none;top=0;left=0;bottom=0;right=0;align=left;spacingLeft=6;fontStyle=5;overflow=hidden;whiteSpace=wrap;html=1;" vertex="1" parent="hn4ZYdpucegocV_tVcTx-549">
          <mxGeometry x="30" width="166" height="30" as="geometry">
            <mxRectangle width="166" height="30" as="alternateBounds" />
          </mxGeometry>
        </mxCell>
        <mxCell id="hn4ZYdpucegocV_tVcTx-376" value="Veiculo" style="shape=table;startSize=30;container=1;collapsible=1;childLayout=tableLayout;fixedRows=1;rowLines=0;fontStyle=1;align=center;resizeLast=1;html=1;" vertex="1" parent="1">
          <mxGeometry x="-215" y="1140" width="196" height="180.0001156455594" as="geometry" />
        </mxCell>
        <mxCell id="hn4ZYdpucegocV_tVcTx-377" value="" style="shape=tableRow;horizontal=0;startSize=0;swimlaneHead=0;swimlaneBody=0;fillColor=none;collapsible=0;dropTarget=0;points=[[0,0.5],[1,0.5]];portConstraint=eastwest;top=0;left=0;right=0;bottom=1;" vertex="1" parent="hn4ZYdpucegocV_tVcTx-376">
          <mxGeometry y="30" width="196" height="30" as="geometry" />
        </mxCell>
        <mxCell id="hn4ZYdpucegocV_tVcTx-378" value="PK" style="shape=partialRectangle;connectable=0;fillColor=none;top=0;left=0;bottom=0;right=0;fontStyle=1;overflow=hidden;whiteSpace=wrap;html=1;" vertex="1" parent="hn4ZYdpucegocV_tVcTx-377">
          <mxGeometry width="30" height="30" as="geometry">
            <mxRectangle width="30" height="30" as="alternateBounds" />
          </mxGeometry>
        </mxCell>
        <mxCell id="hn4ZYdpucegocV_tVcTx-379" value="idVeiculo" style="shape=partialRectangle;connectable=0;fillColor=none;top=0;left=0;bottom=0;right=0;align=left;spacingLeft=6;fontStyle=5;overflow=hidden;whiteSpace=wrap;html=1;" vertex="1" parent="hn4ZYdpucegocV_tVcTx-377">
          <mxGeometry x="30" width="166" height="30" as="geometry">
            <mxRectangle width="166" height="30" as="alternateBounds" />
          </mxGeometry>
        </mxCell>
        <mxCell id="hn4ZYdpucegocV_tVcTx-380" value="" style="shape=tableRow;horizontal=0;startSize=0;swimlaneHead=0;swimlaneBody=0;fillColor=none;collapsible=0;dropTarget=0;points=[[0,0.5],[1,0.5]];portConstraint=eastwest;top=0;left=0;right=0;bottom=0;" vertex="1" parent="hn4ZYdpucegocV_tVcTx-376">
          <mxGeometry y="60" width="196" height="30" as="geometry" />
        </mxCell>
        <mxCell id="hn4ZYdpucegocV_tVcTx-381" value="&lt;b&gt;FK&lt;/b&gt;" style="shape=partialRectangle;connectable=0;fillColor=none;top=0;left=0;bottom=0;right=0;editable=1;overflow=hidden;whiteSpace=wrap;html=1;" vertex="1" parent="hn4ZYdpucegocV_tVcTx-380">
          <mxGeometry width="30" height="30" as="geometry">
            <mxRectangle width="30" height="30" as="alternateBounds" />
          </mxGeometry>
        </mxCell>
        <mxCell id="hn4ZYdpucegocV_tVcTx-382" value="&lt;b style=&quot;border-color: var(--border-color);&quot;&gt;idUsuario&lt;/b&gt;" style="shape=partialRectangle;connectable=0;fillColor=none;top=0;left=0;bottom=0;right=0;align=left;spacingLeft=6;overflow=hidden;whiteSpace=wrap;html=1;" vertex="1" parent="hn4ZYdpucegocV_tVcTx-380">
          <mxGeometry x="30" width="166" height="30" as="geometry">
            <mxRectangle width="166" height="30" as="alternateBounds" />
          </mxGeometry>
        </mxCell>
        <mxCell id="hn4ZYdpucegocV_tVcTx-390" value="" style="shape=tableRow;horizontal=0;startSize=0;swimlaneHead=0;swimlaneBody=0;fillColor=none;collapsible=0;dropTarget=0;points=[[0,0.5],[1,0.5]];portConstraint=eastwest;top=0;left=0;right=0;bottom=0;" vertex="1" parent="hn4ZYdpucegocV_tVcTx-376">
          <mxGeometry y="90" width="196" height="30" as="geometry" />
        </mxCell>
        <mxCell id="hn4ZYdpucegocV_tVcTx-391" value="" style="shape=partialRectangle;connectable=0;fillColor=none;top=0;left=0;bottom=0;right=0;editable=1;overflow=hidden;whiteSpace=wrap;html=1;" vertex="1" parent="hn4ZYdpucegocV_tVcTx-390">
          <mxGeometry width="30" height="30" as="geometry">
            <mxRectangle width="30" height="30" as="alternateBounds" />
          </mxGeometry>
        </mxCell>
        <mxCell id="hn4ZYdpucegocV_tVcTx-392" value="codigoChassi: char()" style="shape=partialRectangle;connectable=0;fillColor=none;top=0;left=0;bottom=0;right=0;align=left;spacingLeft=6;overflow=hidden;whiteSpace=wrap;html=1;" vertex="1" parent="hn4ZYdpucegocV_tVcTx-390">
          <mxGeometry x="30" width="166" height="30" as="geometry">
            <mxRectangle width="166" height="30" as="alternateBounds" />
          </mxGeometry>
        </mxCell>
        <mxCell id="hn4ZYdpucegocV_tVcTx-393" value="" style="shape=tableRow;horizontal=0;startSize=0;swimlaneHead=0;swimlaneBody=0;fillColor=none;collapsible=0;dropTarget=0;points=[[0,0.5],[1,0.5]];portConstraint=eastwest;top=0;left=0;right=0;bottom=0;" vertex="1" parent="hn4ZYdpucegocV_tVcTx-376">
          <mxGeometry y="120" width="196" height="30" as="geometry" />
        </mxCell>
        <mxCell id="hn4ZYdpucegocV_tVcTx-394" value="" style="shape=partialRectangle;connectable=0;fillColor=none;top=0;left=0;bottom=0;right=0;editable=1;overflow=hidden;whiteSpace=wrap;html=1;" vertex="1" parent="hn4ZYdpucegocV_tVcTx-393">
          <mxGeometry width="30" height="30" as="geometry">
            <mxRectangle width="30" height="30" as="alternateBounds" />
          </mxGeometry>
        </mxCell>
        <mxCell id="hn4ZYdpucegocV_tVcTx-395" value="marcaVeiculo: varchar(20)" style="shape=partialRectangle;connectable=0;fillColor=none;top=0;left=0;bottom=0;right=0;align=left;spacingLeft=6;overflow=hidden;whiteSpace=wrap;html=1;" vertex="1" parent="hn4ZYdpucegocV_tVcTx-393">
          <mxGeometry x="30" width="166" height="30" as="geometry">
            <mxRectangle width="166" height="30" as="alternateBounds" />
          </mxGeometry>
        </mxCell>
        <mxCell id="hn4ZYdpucegocV_tVcTx-600" value="" style="shape=tableRow;horizontal=0;startSize=0;swimlaneHead=0;swimlaneBody=0;fillColor=none;collapsible=0;dropTarget=0;points=[[0,0.5],[1,0.5]];portConstraint=eastwest;top=0;left=0;right=0;bottom=0;" vertex="1" parent="hn4ZYdpucegocV_tVcTx-376">
          <mxGeometry y="150" width="196" height="30" as="geometry" />
        </mxCell>
        <mxCell id="hn4ZYdpucegocV_tVcTx-601" value="" style="shape=partialRectangle;connectable=0;fillColor=none;top=0;left=0;bottom=0;right=0;editable=1;overflow=hidden;whiteSpace=wrap;html=1;" vertex="1" parent="hn4ZYdpucegocV_tVcTx-600">
          <mxGeometry width="30" height="30" as="geometry">
            <mxRectangle width="30" height="30" as="alternateBounds" />
          </mxGeometry>
        </mxCell>
        <mxCell id="hn4ZYdpucegocV_tVcTx-602" value="placaCaminhao: char()" style="shape=partialRectangle;connectable=0;fillColor=none;top=0;left=0;bottom=0;right=0;align=left;spacingLeft=6;overflow=hidden;whiteSpace=wrap;html=1;" vertex="1" parent="hn4ZYdpucegocV_tVcTx-600">
          <mxGeometry x="30" width="166" height="30" as="geometry">
            <mxRectangle width="166" height="30" as="alternateBounds" />
          </mxGeometry>
        </mxCell>
        <mxCell id="hn4ZYdpucegocV_tVcTx-383" value="Checklist" style="shape=table;startSize=30;container=1;collapsible=1;childLayout=tableLayout;fixedRows=1;rowLines=0;fontStyle=1;align=center;resizeLast=1;html=1;" vertex="1" parent="1">
          <mxGeometry x="83" y="1297" width="196" height="240" as="geometry" />
        </mxCell>
        <mxCell id="hn4ZYdpucegocV_tVcTx-384" value="" style="shape=tableRow;horizontal=0;startSize=0;swimlaneHead=0;swimlaneBody=0;fillColor=none;collapsible=0;dropTarget=0;points=[[0,0.5],[1,0.5]];portConstraint=eastwest;top=0;left=0;right=0;bottom=1;" vertex="1" parent="hn4ZYdpucegocV_tVcTx-383">
          <mxGeometry y="30" width="196" height="30" as="geometry" />
        </mxCell>
        <mxCell id="hn4ZYdpucegocV_tVcTx-385" value="PK" style="shape=partialRectangle;connectable=0;fillColor=none;top=0;left=0;bottom=0;right=0;fontStyle=1;overflow=hidden;whiteSpace=wrap;html=1;" vertex="1" parent="hn4ZYdpucegocV_tVcTx-384">
          <mxGeometry width="30" height="30" as="geometry">
            <mxRectangle width="30" height="30" as="alternateBounds" />
          </mxGeometry>
        </mxCell>
        <mxCell id="hn4ZYdpucegocV_tVcTx-386" value="idChecklist" style="shape=partialRectangle;connectable=0;fillColor=none;top=0;left=0;bottom=0;right=0;align=left;spacingLeft=6;fontStyle=5;overflow=hidden;whiteSpace=wrap;html=1;" vertex="1" parent="hn4ZYdpucegocV_tVcTx-384">
          <mxGeometry x="30" width="166" height="30" as="geometry">
            <mxRectangle width="166" height="30" as="alternateBounds" />
          </mxGeometry>
        </mxCell>
        <mxCell id="hn4ZYdpucegocV_tVcTx-387" value="" style="shape=tableRow;horizontal=0;startSize=0;swimlaneHead=0;swimlaneBody=0;fillColor=none;collapsible=0;dropTarget=0;points=[[0,0.5],[1,0.5]];portConstraint=eastwest;top=0;left=0;right=0;bottom=0;" vertex="1" parent="hn4ZYdpucegocV_tVcTx-383">
          <mxGeometry y="60" width="196" height="30" as="geometry" />
        </mxCell>
        <mxCell id="hn4ZYdpucegocV_tVcTx-388" value="&lt;b&gt;FK&lt;/b&gt;" style="shape=partialRectangle;connectable=0;fillColor=none;top=0;left=0;bottom=0;right=0;editable=1;overflow=hidden;whiteSpace=wrap;html=1;" vertex="1" parent="hn4ZYdpucegocV_tVcTx-387">
          <mxGeometry width="30" height="30" as="geometry">
            <mxRectangle width="30" height="30" as="alternateBounds" />
          </mxGeometry>
        </mxCell>
        <mxCell id="hn4ZYdpucegocV_tVcTx-389" value="&lt;b&gt;idVeiculo&lt;/b&gt;" style="shape=partialRectangle;connectable=0;fillColor=none;top=0;left=0;bottom=0;right=0;align=left;spacingLeft=6;overflow=hidden;whiteSpace=wrap;html=1;" vertex="1" parent="hn4ZYdpucegocV_tVcTx-387">
          <mxGeometry x="30" width="166" height="30" as="geometry">
            <mxRectangle width="166" height="30" as="alternateBounds" />
          </mxGeometry>
        </mxCell>
        <mxCell id="hn4ZYdpucegocV_tVcTx-396" value="" style="shape=tableRow;horizontal=0;startSize=0;swimlaneHead=0;swimlaneBody=0;fillColor=none;collapsible=0;dropTarget=0;points=[[0,0.5],[1,0.5]];portConstraint=eastwest;top=0;left=0;right=0;bottom=0;" vertex="1" parent="hn4ZYdpucegocV_tVcTx-383">
          <mxGeometry y="90" width="196" height="30" as="geometry" />
        </mxCell>
        <mxCell id="hn4ZYdpucegocV_tVcTx-397" value="" style="shape=partialRectangle;connectable=0;fillColor=none;top=0;left=0;bottom=0;right=0;editable=1;overflow=hidden;whiteSpace=wrap;html=1;" vertex="1" parent="hn4ZYdpucegocV_tVcTx-396">
          <mxGeometry width="30" height="30" as="geometry">
            <mxRectangle width="30" height="30" as="alternateBounds" />
          </mxGeometry>
        </mxCell>
        <mxCell id="hn4ZYdpucegocV_tVcTx-398" value="freioOk: bit" style="shape=partialRectangle;connectable=0;fillColor=none;top=0;left=0;bottom=0;right=0;align=left;spacingLeft=6;overflow=hidden;whiteSpace=wrap;html=1;" vertex="1" parent="hn4ZYdpucegocV_tVcTx-396">
          <mxGeometry x="30" width="166" height="30" as="geometry">
            <mxRectangle width="166" height="30" as="alternateBounds" />
          </mxGeometry>
        </mxCell>
        <mxCell id="hn4ZYdpucegocV_tVcTx-399" value="" style="shape=tableRow;horizontal=0;startSize=0;swimlaneHead=0;swimlaneBody=0;fillColor=none;collapsible=0;dropTarget=0;points=[[0,0.5],[1,0.5]];portConstraint=eastwest;top=0;left=0;right=0;bottom=0;" vertex="1" parent="hn4ZYdpucegocV_tVcTx-383">
          <mxGeometry y="120" width="196" height="30" as="geometry" />
        </mxCell>
        <mxCell id="hn4ZYdpucegocV_tVcTx-400" value="" style="shape=partialRectangle;connectable=0;fillColor=none;top=0;left=0;bottom=0;right=0;editable=1;overflow=hidden;whiteSpace=wrap;html=1;" vertex="1" parent="hn4ZYdpucegocV_tVcTx-399">
          <mxGeometry width="30" height="30" as="geometry">
            <mxRectangle width="30" height="30" as="alternateBounds" />
          </mxGeometry>
        </mxCell>
        <mxCell id="hn4ZYdpucegocV_tVcTx-401" value="combustivelOk: bit&amp;nbsp;" style="shape=partialRectangle;connectable=0;fillColor=none;top=0;left=0;bottom=0;right=0;align=left;spacingLeft=6;overflow=hidden;whiteSpace=wrap;html=1;" vertex="1" parent="hn4ZYdpucegocV_tVcTx-399">
          <mxGeometry x="30" width="166" height="30" as="geometry">
            <mxRectangle width="166" height="30" as="alternateBounds" />
          </mxGeometry>
        </mxCell>
        <mxCell id="hn4ZYdpucegocV_tVcTx-402" value="" style="shape=tableRow;horizontal=0;startSize=0;swimlaneHead=0;swimlaneBody=0;fillColor=none;collapsible=0;dropTarget=0;points=[[0,0.5],[1,0.5]];portConstraint=eastwest;top=0;left=0;right=0;bottom=0;" vertex="1" parent="hn4ZYdpucegocV_tVcTx-383">
          <mxGeometry y="150" width="196" height="30" as="geometry" />
        </mxCell>
        <mxCell id="hn4ZYdpucegocV_tVcTx-403" value="" style="shape=partialRectangle;connectable=0;fillColor=none;top=0;left=0;bottom=0;right=0;editable=1;overflow=hidden;whiteSpace=wrap;html=1;" vertex="1" parent="hn4ZYdpucegocV_tVcTx-402">
          <mxGeometry width="30" height="30" as="geometry">
            <mxRectangle width="30" height="30" as="alternateBounds" />
          </mxGeometry>
        </mxCell>
        <mxCell id="hn4ZYdpucegocV_tVcTx-404" value="oleoOk: bit" style="shape=partialRectangle;connectable=0;fillColor=none;top=0;left=0;bottom=0;right=0;align=left;spacingLeft=6;overflow=hidden;whiteSpace=wrap;html=1;" vertex="1" parent="hn4ZYdpucegocV_tVcTx-402">
          <mxGeometry x="30" width="166" height="30" as="geometry">
            <mxRectangle width="166" height="30" as="alternateBounds" />
          </mxGeometry>
        </mxCell>
        <mxCell id="hn4ZYdpucegocV_tVcTx-405" value="" style="shape=tableRow;horizontal=0;startSize=0;swimlaneHead=0;swimlaneBody=0;fillColor=none;collapsible=0;dropTarget=0;points=[[0,0.5],[1,0.5]];portConstraint=eastwest;top=0;left=0;right=0;bottom=0;" vertex="1" parent="hn4ZYdpucegocV_tVcTx-383">
          <mxGeometry y="180" width="196" height="30" as="geometry" />
        </mxCell>
        <mxCell id="hn4ZYdpucegocV_tVcTx-406" value="" style="shape=partialRectangle;connectable=0;fillColor=none;top=0;left=0;bottom=0;right=0;editable=1;overflow=hidden;whiteSpace=wrap;html=1;" vertex="1" parent="hn4ZYdpucegocV_tVcTx-405">
          <mxGeometry width="30" height="30" as="geometry">
            <mxRectangle width="30" height="30" as="alternateBounds" />
          </mxGeometry>
        </mxCell>
        <mxCell id="hn4ZYdpucegocV_tVcTx-407" value="fotoPneu: blob" style="shape=partialRectangle;connectable=0;fillColor=none;top=0;left=0;bottom=0;right=0;align=left;spacingLeft=6;overflow=hidden;whiteSpace=wrap;html=1;" vertex="1" parent="hn4ZYdpucegocV_tVcTx-405">
          <mxGeometry x="30" width="166" height="30" as="geometry">
            <mxRectangle width="166" height="30" as="alternateBounds" />
          </mxGeometry>
        </mxCell>
        <mxCell id="hn4ZYdpucegocV_tVcTx-607" value="" style="shape=tableRow;horizontal=0;startSize=0;swimlaneHead=0;swimlaneBody=0;fillColor=none;collapsible=0;dropTarget=0;points=[[0,0.5],[1,0.5]];portConstraint=eastwest;top=0;left=0;right=0;bottom=1;" vertex="1" parent="hn4ZYdpucegocV_tVcTx-383">
          <mxGeometry y="210" width="196" height="30" as="geometry" />
        </mxCell>
        <mxCell id="hn4ZYdpucegocV_tVcTx-608" value="" style="shape=partialRectangle;connectable=0;fillColor=none;top=0;left=0;bottom=0;right=0;fontStyle=1;overflow=hidden;whiteSpace=wrap;html=1;" vertex="1" parent="hn4ZYdpucegocV_tVcTx-607">
          <mxGeometry width="30" height="30" as="geometry">
            <mxRectangle width="30" height="30" as="alternateBounds" />
          </mxGeometry>
        </mxCell>
        <mxCell id="hn4ZYdpucegocV_tVcTx-609" value="&lt;span style=&quot;font-weight: normal;&quot;&gt;arCondicionadoOk: bit&lt;/span&gt;" style="shape=partialRectangle;connectable=0;fillColor=none;top=0;left=0;bottom=0;right=0;align=left;spacingLeft=6;fontStyle=5;overflow=hidden;whiteSpace=wrap;html=1;" vertex="1" parent="hn4ZYdpucegocV_tVcTx-607">
          <mxGeometry x="30" width="166" height="30" as="geometry">
            <mxRectangle width="166" height="30" as="alternateBounds" />
          </mxGeometry>
        </mxCell>
        <mxCell id="hn4ZYdpucegocV_tVcTx-411" value="" style="edgeStyle=entityRelationEdgeStyle;fontSize=12;html=1;endArrow=ERoneToMany;rounded=0;" edge="1" parent="1" source="hn4ZYdpucegocV_tVcTx-376" target="hn4ZYdpucegocV_tVcTx-383">
          <mxGeometry width="100" height="100" relative="1" as="geometry">
            <mxPoint x="-192" y="1399" as="sourcePoint" />
            <mxPoint x="-92" y="1299" as="targetPoint" />
            <Array as="points">
              <mxPoint x="-49" y="1277" />
              <mxPoint x="-107" y="1224" />
            </Array>
          </mxGeometry>
        </mxCell>
        <mxCell id="hn4ZYdpucegocV_tVcTx-416" style="edgeStyle=orthogonalEdgeStyle;rounded=0;orthogonalLoop=1;jettySize=auto;html=1;endArrow=ERmandOne;endFill=0;startArrow=ERmandOne;startFill=0;" edge="1" parent="1" source="hn4ZYdpucegocV_tVcTx-290" target="hn4ZYdpucegocV_tVcTx-360">
          <mxGeometry relative="1" as="geometry">
            <mxPoint x="-71" y="817.5699999999999" as="sourcePoint" />
            <mxPoint x="-75" y="903.5699999999999" as="targetPoint" />
            <Array as="points">
              <mxPoint x="37" y="841" />
              <mxPoint x="37" y="875" />
              <mxPoint x="-120" y="875" />
            </Array>
          </mxGeometry>
        </mxCell>
        <mxCell id="hn4ZYdpucegocV_tVcTx-417" style="edgeStyle=orthogonalEdgeStyle;rounded=0;orthogonalLoop=1;jettySize=auto;html=1;endArrow=ERmandOne;endFill=0;startArrow=ERmandOne;startFill=0;" edge="1" parent="1" source="hn4ZYdpucegocV_tVcTx-290" target="hn4ZYdpucegocV_tVcTx-315">
          <mxGeometry relative="1" as="geometry">
            <mxPoint x="105" y="851" as="sourcePoint" />
            <mxPoint x="-110" y="974" as="targetPoint" />
            <Array as="points">
              <mxPoint x="43" y="876" />
              <mxPoint x="43" y="1014" />
              <mxPoint x="192" y="1014" />
            </Array>
          </mxGeometry>
        </mxCell>
        <mxCell id="hn4ZYdpucegocV_tVcTx-419" style="edgeStyle=orthogonalEdgeStyle;rounded=0;orthogonalLoop=1;jettySize=auto;html=1;endArrow=ERmandOne;endFill=0;startArrow=ERmandOne;startFill=0;" edge="1" parent="1" source="hn4ZYdpucegocV_tVcTx-290" target="hn4ZYdpucegocV_tVcTx-234">
          <mxGeometry relative="1" as="geometry">
            <mxPoint x="386.92" y="971" as="sourcePoint" />
            <mxPoint x="483.92" y="1149" as="targetPoint" />
            <Array as="points">
              <mxPoint x="335" y="856" />
              <mxPoint x="335" y="861" />
            </Array>
          </mxGeometry>
        </mxCell>
        <mxCell id="hn4ZYdpucegocV_tVcTx-424" style="edgeStyle=orthogonalEdgeStyle;rounded=0;orthogonalLoop=1;jettySize=auto;html=1;entryX=-0.018;entryY=0.123;entryDx=0;entryDy=0;entryPerimeter=0;endArrow=ERoneToMany;endFill=0;" edge="1" parent="1" source="hn4ZYdpucegocV_tVcTx-290">
          <mxGeometry relative="1" as="geometry">
            <mxPoint x="372.75999999999976" y="1328.69" as="targetPoint" />
            <Array as="points">
              <mxPoint x="212" y="1016" />
              <mxPoint x="324" y="1016" />
              <mxPoint x="324" y="1271" />
              <mxPoint x="357" y="1271" />
              <mxPoint x="357" y="1329" />
            </Array>
          </mxGeometry>
        </mxCell>
        <mxCell id="hn4ZYdpucegocV_tVcTx-429" style="edgeStyle=orthogonalEdgeStyle;rounded=0;orthogonalLoop=1;jettySize=auto;html=1;endArrow=ERmandOne;endFill=0;startArrow=ERmandOne;startFill=0;" edge="1" parent="1" source="hn4ZYdpucegocV_tVcTx-234" target="hn4ZYdpucegocV_tVcTx-277">
          <mxGeometry relative="1" as="geometry">
            <mxPoint x="427" y="1140" as="sourcePoint" />
            <mxPoint x="423" y="1226" as="targetPoint" />
            <Array as="points">
              <mxPoint x="377" y="886" />
              <mxPoint x="377" y="1147" />
              <mxPoint x="443" y="1147" />
            </Array>
          </mxGeometry>
        </mxCell>
        <mxCell id="hn4ZYdpucegocV_tVcTx-477" value="" style="shape=tableRow;horizontal=0;startSize=0;swimlaneHead=0;swimlaneBody=0;fillColor=none;collapsible=0;dropTarget=0;points=[[0,0.5],[1,0.5]];portConstraint=eastwest;top=0;left=0;right=0;bottom=0;" vertex="1" parent="1">
          <mxGeometry x="99" y="1214" width="196" height="30" as="geometry" />
        </mxCell>
        <mxCell id="hn4ZYdpucegocV_tVcTx-478" value="" style="shape=partialRectangle;connectable=0;fillColor=none;top=0;left=0;bottom=0;right=0;editable=1;overflow=hidden;whiteSpace=wrap;html=1;" vertex="1" parent="hn4ZYdpucegocV_tVcTx-477">
          <mxGeometry width="26.08701490319315" height="30" as="geometry">
            <mxRectangle width="26.08701490319315" height="30" as="alternateBounds" />
          </mxGeometry>
        </mxCell>
        <mxCell id="hn4ZYdpucegocV_tVcTx-537" value="" style="shape=tableRow;horizontal=0;startSize=0;swimlaneHead=0;swimlaneBody=0;fillColor=none;collapsible=0;dropTarget=0;points=[[0,0.5],[1,0.5]];portConstraint=eastwest;top=0;left=0;right=0;bottom=0;" vertex="1" parent="1">
          <mxGeometry x="99" y="1154" width="196" height="30" as="geometry" />
        </mxCell>
        <mxCell id="hn4ZYdpucegocV_tVcTx-538" value="" style="shape=partialRectangle;connectable=0;fillColor=none;top=0;left=0;bottom=0;right=0;editable=1;overflow=hidden;whiteSpace=wrap;html=1;" vertex="1" parent="hn4ZYdpucegocV_tVcTx-537">
          <mxGeometry width="26.08701490319315" height="30" as="geometry">
            <mxRectangle width="26.08701490319315" height="30" as="alternateBounds" />
          </mxGeometry>
        </mxCell>
        <mxCell id="hn4ZYdpucegocV_tVcTx-610" value="Propaganda" style="shape=table;startSize=30;container=1;collapsible=1;childLayout=tableLayout;fixedRows=1;rowLines=0;fontStyle=1;align=center;resizeLast=1;html=1;" vertex="1" parent="1">
          <mxGeometry x="1571" y="730" width="271" height="311" as="geometry" />
        </mxCell>
        <mxCell id="hn4ZYdpucegocV_tVcTx-611" value="" style="shape=tableRow;horizontal=0;startSize=0;swimlaneHead=0;swimlaneBody=0;fillColor=none;collapsible=0;dropTarget=0;points=[[0,0.5],[1,0.5]];portConstraint=eastwest;top=0;left=0;right=0;bottom=1;" vertex="1" parent="hn4ZYdpucegocV_tVcTx-610">
          <mxGeometry y="30" width="271" height="30" as="geometry" />
        </mxCell>
        <mxCell id="hn4ZYdpucegocV_tVcTx-612" value="PK" style="shape=partialRectangle;connectable=0;fillColor=none;top=0;left=0;bottom=0;right=0;fontStyle=1;overflow=hidden;whiteSpace=wrap;html=1;" vertex="1" parent="hn4ZYdpucegocV_tVcTx-611">
          <mxGeometry width="30" height="30" as="geometry">
            <mxRectangle width="30" height="30" as="alternateBounds" />
          </mxGeometry>
        </mxCell>
        <mxCell id="hn4ZYdpucegocV_tVcTx-613" value="idPropaganda" style="shape=partialRectangle;connectable=0;fillColor=none;top=0;left=0;bottom=0;right=0;align=left;spacingLeft=6;fontStyle=5;overflow=hidden;whiteSpace=wrap;html=1;" vertex="1" parent="hn4ZYdpucegocV_tVcTx-611">
          <mxGeometry x="30" width="241" height="30" as="geometry">
            <mxRectangle width="241" height="30" as="alternateBounds" />
          </mxGeometry>
        </mxCell>
        <mxCell id="hn4ZYdpucegocV_tVcTx-614" value="" style="shape=tableRow;horizontal=0;startSize=0;swimlaneHead=0;swimlaneBody=0;fillColor=none;collapsible=0;dropTarget=0;points=[[0,0.5],[1,0.5]];portConstraint=eastwest;top=0;left=0;right=0;bottom=0;" vertex="1" parent="hn4ZYdpucegocV_tVcTx-610">
          <mxGeometry y="60" width="271" height="27" as="geometry" />
        </mxCell>
        <mxCell id="hn4ZYdpucegocV_tVcTx-615" value="" style="shape=partialRectangle;connectable=0;fillColor=none;top=0;left=0;bottom=0;right=0;editable=1;overflow=hidden;whiteSpace=wrap;html=1;" vertex="1" parent="hn4ZYdpucegocV_tVcTx-614">
          <mxGeometry width="30" height="27" as="geometry">
            <mxRectangle width="30" height="27" as="alternateBounds" />
          </mxGeometry>
        </mxCell>
        <mxCell id="hn4ZYdpucegocV_tVcTx-616" value="nomeTipoPropaganda" style="shape=partialRectangle;connectable=0;fillColor=none;top=0;left=0;bottom=0;right=0;align=left;spacingLeft=6;overflow=hidden;whiteSpace=wrap;html=1;" vertex="1" parent="hn4ZYdpucegocV_tVcTx-614">
          <mxGeometry x="30" width="241" height="27" as="geometry">
            <mxRectangle width="241" height="27" as="alternateBounds" />
          </mxGeometry>
        </mxCell>
        <mxCell id="hn4ZYdpucegocV_tVcTx-617" value="" style="shape=tableRow;horizontal=0;startSize=0;swimlaneHead=0;swimlaneBody=0;fillColor=none;collapsible=0;dropTarget=0;points=[[0,0.5],[1,0.5]];portConstraint=eastwest;top=0;left=0;right=0;bottom=0;" vertex="1" parent="hn4ZYdpucegocV_tVcTx-610">
          <mxGeometry y="87" width="271" height="27" as="geometry" />
        </mxCell>
        <mxCell id="hn4ZYdpucegocV_tVcTx-618" value="" style="shape=partialRectangle;connectable=0;fillColor=none;top=0;left=0;bottom=0;right=0;editable=1;overflow=hidden;whiteSpace=wrap;html=1;" vertex="1" parent="hn4ZYdpucegocV_tVcTx-617">
          <mxGeometry width="30" height="27" as="geometry">
            <mxRectangle width="30" height="27" as="alternateBounds" />
          </mxGeometry>
        </mxCell>
        <mxCell id="hn4ZYdpucegocV_tVcTx-619" value="titulo" style="shape=partialRectangle;connectable=0;fillColor=none;top=0;left=0;bottom=0;right=0;align=left;spacingLeft=6;overflow=hidden;whiteSpace=wrap;html=1;" vertex="1" parent="hn4ZYdpucegocV_tVcTx-617">
          <mxGeometry x="30" width="241" height="27" as="geometry">
            <mxRectangle width="241" height="27" as="alternateBounds" />
          </mxGeometry>
        </mxCell>
        <mxCell id="hn4ZYdpucegocV_tVcTx-620" value="" style="shape=tableRow;horizontal=0;startSize=0;swimlaneHead=0;swimlaneBody=0;fillColor=none;collapsible=0;dropTarget=0;points=[[0,0.5],[1,0.5]];portConstraint=eastwest;top=0;left=0;right=0;bottom=0;" vertex="1" parent="hn4ZYdpucegocV_tVcTx-610">
          <mxGeometry y="114" width="271" height="27" as="geometry" />
        </mxCell>
        <mxCell id="hn4ZYdpucegocV_tVcTx-621" value="" style="shape=partialRectangle;connectable=0;fillColor=none;top=0;left=0;bottom=0;right=0;editable=1;overflow=hidden;whiteSpace=wrap;html=1;" vertex="1" parent="hn4ZYdpucegocV_tVcTx-620">
          <mxGeometry width="30" height="27" as="geometry">
            <mxRectangle width="30" height="27" as="alternateBounds" />
          </mxGeometry>
        </mxCell>
        <mxCell id="hn4ZYdpucegocV_tVcTx-622" value="url" style="shape=partialRectangle;connectable=0;fillColor=none;top=0;left=0;bottom=0;right=0;align=left;spacingLeft=6;overflow=hidden;whiteSpace=wrap;html=1;" vertex="1" parent="hn4ZYdpucegocV_tVcTx-620">
          <mxGeometry x="30" width="241" height="27" as="geometry">
            <mxRectangle width="241" height="27" as="alternateBounds" />
          </mxGeometry>
        </mxCell>
        <mxCell id="hn4ZYdpucegocV_tVcTx-623" value="" style="shape=tableRow;horizontal=0;startSize=0;swimlaneHead=0;swimlaneBody=0;fillColor=none;collapsible=0;dropTarget=0;points=[[0,0.5],[1,0.5]];portConstraint=eastwest;top=0;left=0;right=0;bottom=0;" vertex="1" parent="hn4ZYdpucegocV_tVcTx-610">
          <mxGeometry y="141" width="271" height="27" as="geometry" />
        </mxCell>
        <mxCell id="hn4ZYdpucegocV_tVcTx-624" value="" style="shape=partialRectangle;connectable=0;fillColor=none;top=0;left=0;bottom=0;right=0;editable=1;overflow=hidden;whiteSpace=wrap;html=1;" vertex="1" parent="hn4ZYdpucegocV_tVcTx-623">
          <mxGeometry width="30" height="27" as="geometry">
            <mxRectangle width="30" height="27" as="alternateBounds" />
          </mxGeometry>
        </mxCell>
        <mxCell id="hn4ZYdpucegocV_tVcTx-625" value="descricao" style="shape=partialRectangle;connectable=0;fillColor=none;top=0;left=0;bottom=0;right=0;align=left;spacingLeft=6;overflow=hidden;whiteSpace=wrap;html=1;" vertex="1" parent="hn4ZYdpucegocV_tVcTx-623">
          <mxGeometry x="30" width="241" height="27" as="geometry">
            <mxRectangle width="241" height="27" as="alternateBounds" />
          </mxGeometry>
        </mxCell>
        <mxCell id="hn4ZYdpucegocV_tVcTx-626" value="" style="shape=tableRow;horizontal=0;startSize=0;swimlaneHead=0;swimlaneBody=0;fillColor=none;collapsible=0;dropTarget=0;points=[[0,0.5],[1,0.5]];portConstraint=eastwest;top=0;left=0;right=0;bottom=0;" vertex="1" parent="hn4ZYdpucegocV_tVcTx-610">
          <mxGeometry y="168" width="271" height="27" as="geometry" />
        </mxCell>
        <mxCell id="hn4ZYdpucegocV_tVcTx-627" value="" style="shape=partialRectangle;connectable=0;fillColor=none;top=0;left=0;bottom=0;right=0;editable=1;overflow=hidden;whiteSpace=wrap;html=1;" vertex="1" parent="hn4ZYdpucegocV_tVcTx-626">
          <mxGeometry width="30" height="27" as="geometry">
            <mxRectangle width="30" height="27" as="alternateBounds" />
          </mxGeometry>
        </mxCell>
        <mxCell id="hn4ZYdpucegocV_tVcTx-628" value="img" style="shape=partialRectangle;connectable=0;fillColor=none;top=0;left=0;bottom=0;right=0;align=left;spacingLeft=6;overflow=hidden;whiteSpace=wrap;html=1;" vertex="1" parent="hn4ZYdpucegocV_tVcTx-626">
          <mxGeometry x="30" width="241" height="27" as="geometry">
            <mxRectangle width="241" height="27" as="alternateBounds" />
          </mxGeometry>
        </mxCell>
        <mxCell id="hn4ZYdpucegocV_tVcTx-629" value="" style="shape=tableRow;horizontal=0;startSize=0;swimlaneHead=0;swimlaneBody=0;fillColor=none;collapsible=0;dropTarget=0;points=[[0,0.5],[1,0.5]];portConstraint=eastwest;top=0;left=0;right=0;bottom=0;" vertex="1" parent="hn4ZYdpucegocV_tVcTx-610">
          <mxGeometry y="195" width="271" height="27" as="geometry" />
        </mxCell>
        <mxCell id="hn4ZYdpucegocV_tVcTx-630" value="" style="shape=partialRectangle;connectable=0;fillColor=none;top=0;left=0;bottom=0;right=0;editable=1;overflow=hidden;whiteSpace=wrap;html=1;" vertex="1" parent="hn4ZYdpucegocV_tVcTx-629">
          <mxGeometry width="30" height="27" as="geometry">
            <mxRectangle width="30" height="27" as="alternateBounds" />
          </mxGeometry>
        </mxCell>
        <mxCell id="hn4ZYdpucegocV_tVcTx-631" value="publicoAlvo" style="shape=partialRectangle;connectable=0;fillColor=none;top=0;left=0;bottom=0;right=0;align=left;spacingLeft=6;overflow=hidden;whiteSpace=wrap;html=1;" vertex="1" parent="hn4ZYdpucegocV_tVcTx-629">
          <mxGeometry x="30" width="241" height="27" as="geometry">
            <mxRectangle width="241" height="27" as="alternateBounds" />
          </mxGeometry>
        </mxCell>
        <mxCell id="hn4ZYdpucegocV_tVcTx-632" value="" style="shape=tableRow;horizontal=0;startSize=0;swimlaneHead=0;swimlaneBody=0;fillColor=none;collapsible=0;dropTarget=0;points=[[0,0.5],[1,0.5]];portConstraint=eastwest;top=0;left=0;right=0;bottom=0;" vertex="1" parent="hn4ZYdpucegocV_tVcTx-610">
          <mxGeometry y="222" width="271" height="27" as="geometry" />
        </mxCell>
        <mxCell id="hn4ZYdpucegocV_tVcTx-633" value="" style="shape=partialRectangle;connectable=0;fillColor=none;top=0;left=0;bottom=0;right=0;editable=1;overflow=hidden;whiteSpace=wrap;html=1;" vertex="1" parent="hn4ZYdpucegocV_tVcTx-632">
          <mxGeometry width="30" height="27" as="geometry">
            <mxRectangle width="30" height="27" as="alternateBounds" />
          </mxGeometry>
        </mxCell>
        <mxCell id="hn4ZYdpucegocV_tVcTx-634" value="dataLimite" style="shape=partialRectangle;connectable=0;fillColor=none;top=0;left=0;bottom=0;right=0;align=left;spacingLeft=6;overflow=hidden;whiteSpace=wrap;html=1;" vertex="1" parent="hn4ZYdpucegocV_tVcTx-632">
          <mxGeometry x="30" width="241" height="27" as="geometry">
            <mxRectangle width="241" height="27" as="alternateBounds" />
          </mxGeometry>
        </mxCell>
        <mxCell id="hn4ZYdpucegocV_tVcTx-635" value="" style="shape=tableRow;horizontal=0;startSize=0;swimlaneHead=0;swimlaneBody=0;fillColor=none;collapsible=0;dropTarget=0;points=[[0,0.5],[1,0.5]];portConstraint=eastwest;top=0;left=0;right=0;bottom=0;" vertex="1" parent="hn4ZYdpucegocV_tVcTx-610">
          <mxGeometry y="249" width="271" height="35" as="geometry" />
        </mxCell>
        <mxCell id="hn4ZYdpucegocV_tVcTx-636" value="" style="shape=partialRectangle;connectable=0;fillColor=none;top=0;left=0;bottom=0;right=0;editable=1;overflow=hidden;whiteSpace=wrap;html=1;" vertex="1" parent="hn4ZYdpucegocV_tVcTx-635">
          <mxGeometry width="30" height="35" as="geometry">
            <mxRectangle width="30" height="35" as="alternateBounds" />
          </mxGeometry>
        </mxCell>
        <mxCell id="hn4ZYdpucegocV_tVcTx-637" value="preco" style="shape=partialRectangle;connectable=0;fillColor=none;top=0;left=0;bottom=0;right=0;align=left;spacingLeft=6;overflow=hidden;whiteSpace=wrap;html=1;" vertex="1" parent="hn4ZYdpucegocV_tVcTx-635">
          <mxGeometry x="30" width="241" height="35" as="geometry">
            <mxRectangle width="241" height="35" as="alternateBounds" />
          </mxGeometry>
        </mxCell>
        <mxCell id="hn4ZYdpucegocV_tVcTx-638" value="" style="shape=tableRow;horizontal=0;startSize=0;swimlaneHead=0;swimlaneBody=0;fillColor=none;collapsible=0;dropTarget=0;points=[[0,0.5],[1,0.5]];portConstraint=eastwest;top=0;left=0;right=0;bottom=0;" vertex="1" parent="hn4ZYdpucegocV_tVcTx-610">
          <mxGeometry y="284" width="271" height="27" as="geometry" />
        </mxCell>
        <mxCell id="hn4ZYdpucegocV_tVcTx-639" value="" style="shape=partialRectangle;connectable=0;fillColor=none;top=0;left=0;bottom=0;right=0;editable=1;overflow=hidden;whiteSpace=wrap;html=1;" vertex="1" parent="hn4ZYdpucegocV_tVcTx-638">
          <mxGeometry width="30" height="27" as="geometry">
            <mxRectangle width="30" height="27" as="alternateBounds" />
          </mxGeometry>
        </mxCell>
        <mxCell id="hn4ZYdpucegocV_tVcTx-640" value="importancia" style="shape=partialRectangle;connectable=0;fillColor=none;top=0;left=0;bottom=0;right=0;align=left;spacingLeft=6;overflow=hidden;whiteSpace=wrap;html=1;" vertex="1" parent="hn4ZYdpucegocV_tVcTx-638">
          <mxGeometry x="30" width="241" height="27" as="geometry">
            <mxRectangle width="241" height="27" as="alternateBounds" />
          </mxGeometry>
        </mxCell>
        <mxCell id="hn4ZYdpucegocV_tVcTx-641" value="Interesse" style="shape=table;startSize=30;container=1;collapsible=1;childLayout=tableLayout;fixedRows=1;rowLines=0;fontStyle=1;align=center;resizeLast=1;html=1;" vertex="1" parent="1">
          <mxGeometry x="1533" y="1286" width="180" height="150" as="geometry" />
        </mxCell>
        <mxCell id="hn4ZYdpucegocV_tVcTx-642" value="" style="shape=tableRow;horizontal=0;startSize=0;swimlaneHead=0;swimlaneBody=0;fillColor=none;collapsible=0;dropTarget=0;points=[[0,0.5],[1,0.5]];portConstraint=eastwest;top=0;left=0;right=0;bottom=1;" vertex="1" parent="hn4ZYdpucegocV_tVcTx-641">
          <mxGeometry y="30" width="180" height="30" as="geometry" />
        </mxCell>
        <mxCell id="hn4ZYdpucegocV_tVcTx-643" value="PK" style="shape=partialRectangle;connectable=0;fillColor=none;top=0;left=0;bottom=0;right=0;fontStyle=1;overflow=hidden;whiteSpace=wrap;html=1;" vertex="1" parent="hn4ZYdpucegocV_tVcTx-642">
          <mxGeometry width="30" height="30" as="geometry">
            <mxRectangle width="30" height="30" as="alternateBounds" />
          </mxGeometry>
        </mxCell>
        <mxCell id="hn4ZYdpucegocV_tVcTx-644" value="idInteresse" style="shape=partialRectangle;connectable=0;fillColor=none;top=0;left=0;bottom=0;right=0;align=left;spacingLeft=6;fontStyle=5;overflow=hidden;whiteSpace=wrap;html=1;" vertex="1" parent="hn4ZYdpucegocV_tVcTx-642">
          <mxGeometry x="30" width="150" height="30" as="geometry">
            <mxRectangle width="150" height="30" as="alternateBounds" />
          </mxGeometry>
        </mxCell>
        <mxCell id="hn4ZYdpucegocV_tVcTx-645" value="" style="shape=tableRow;horizontal=0;startSize=0;swimlaneHead=0;swimlaneBody=0;fillColor=none;collapsible=0;dropTarget=0;points=[[0,0.5],[1,0.5]];portConstraint=eastwest;top=0;left=0;right=0;bottom=1;" vertex="1" parent="hn4ZYdpucegocV_tVcTx-641">
          <mxGeometry y="60" width="180" height="30" as="geometry" />
        </mxCell>
        <mxCell id="hn4ZYdpucegocV_tVcTx-646" value="FK" style="shape=partialRectangle;connectable=0;fillColor=none;top=0;left=0;bottom=0;right=0;fontStyle=1;overflow=hidden;whiteSpace=wrap;html=1;" vertex="1" parent="hn4ZYdpucegocV_tVcTx-645">
          <mxGeometry width="30" height="30" as="geometry">
            <mxRectangle width="30" height="30" as="alternateBounds" />
          </mxGeometry>
        </mxCell>
        <mxCell id="hn4ZYdpucegocV_tVcTx-647" value="idPropaganda" style="shape=partialRectangle;connectable=0;fillColor=none;top=0;left=0;bottom=0;right=0;align=left;spacingLeft=6;fontStyle=5;overflow=hidden;whiteSpace=wrap;html=1;" vertex="1" parent="hn4ZYdpucegocV_tVcTx-645">
          <mxGeometry x="30" width="150" height="30" as="geometry">
            <mxRectangle width="150" height="30" as="alternateBounds" />
          </mxGeometry>
        </mxCell>
        <mxCell id="hn4ZYdpucegocV_tVcTx-648" value="" style="shape=tableRow;horizontal=0;startSize=0;swimlaneHead=0;swimlaneBody=0;fillColor=none;collapsible=0;dropTarget=0;points=[[0,0.5],[1,0.5]];portConstraint=eastwest;top=0;left=0;right=0;bottom=1;" vertex="1" parent="hn4ZYdpucegocV_tVcTx-641">
          <mxGeometry y="90" width="180" height="30" as="geometry" />
        </mxCell>
        <mxCell id="hn4ZYdpucegocV_tVcTx-649" value="FK" style="shape=partialRectangle;connectable=0;fillColor=none;top=0;left=0;bottom=0;right=0;fontStyle=1;overflow=hidden;whiteSpace=wrap;html=1;" vertex="1" parent="hn4ZYdpucegocV_tVcTx-648">
          <mxGeometry width="30" height="30" as="geometry">
            <mxRectangle width="30" height="30" as="alternateBounds" />
          </mxGeometry>
        </mxCell>
        <mxCell id="hn4ZYdpucegocV_tVcTx-650" value="idUsuario" style="shape=partialRectangle;connectable=0;fillColor=none;top=0;left=0;bottom=0;right=0;align=left;spacingLeft=6;fontStyle=5;overflow=hidden;whiteSpace=wrap;html=1;" vertex="1" parent="hn4ZYdpucegocV_tVcTx-648">
          <mxGeometry x="30" width="150" height="30" as="geometry">
            <mxRectangle width="150" height="30" as="alternateBounds" />
          </mxGeometry>
        </mxCell>
        <mxCell id="hn4ZYdpucegocV_tVcTx-651" value="" style="shape=tableRow;horizontal=0;startSize=0;swimlaneHead=0;swimlaneBody=0;fillColor=none;collapsible=0;dropTarget=0;points=[[0,0.5],[1,0.5]];portConstraint=eastwest;top=0;left=0;right=0;bottom=1;" vertex="1" parent="hn4ZYdpucegocV_tVcTx-641">
          <mxGeometry y="120" width="180" height="30" as="geometry" />
        </mxCell>
        <mxCell id="hn4ZYdpucegocV_tVcTx-652" value="" style="shape=partialRectangle;connectable=0;fillColor=none;top=0;left=0;bottom=0;right=0;fontStyle=1;overflow=hidden;whiteSpace=wrap;html=1;" vertex="1" parent="hn4ZYdpucegocV_tVcTx-651">
          <mxGeometry width="30" height="30" as="geometry">
            <mxRectangle width="30" height="30" as="alternateBounds" />
          </mxGeometry>
        </mxCell>
        <mxCell id="hn4ZYdpucegocV_tVcTx-653" value="&lt;span style=&quot;font-weight: normal;&quot;&gt;meioContatoEmail&lt;/span&gt;" style="shape=partialRectangle;connectable=0;fillColor=none;top=0;left=0;bottom=0;right=0;align=left;spacingLeft=6;fontStyle=5;overflow=hidden;whiteSpace=wrap;html=1;" vertex="1" parent="hn4ZYdpucegocV_tVcTx-651">
          <mxGeometry x="30" width="150" height="30" as="geometry">
            <mxRectangle width="150" height="30" as="alternateBounds" />
          </mxGeometry>
        </mxCell>
        <mxCell id="hn4ZYdpucegocV_tVcTx-654" value="Usuario" style="shape=table;startSize=30;container=1;collapsible=1;childLayout=tableLayout;fixedRows=1;rowLines=0;fontStyle=1;align=center;resizeLast=1;html=1;" vertex="1" parent="1">
          <mxGeometry x="1252" y="727" width="180" height="265" as="geometry" />
        </mxCell>
        <mxCell id="hn4ZYdpucegocV_tVcTx-655" value="" style="shape=tableRow;horizontal=0;startSize=0;swimlaneHead=0;swimlaneBody=0;fillColor=none;collapsible=0;dropTarget=0;points=[[0,0.5],[1,0.5]];portConstraint=eastwest;top=0;left=0;right=0;bottom=1;" vertex="1" parent="hn4ZYdpucegocV_tVcTx-654">
          <mxGeometry y="30" width="180" height="25" as="geometry" />
        </mxCell>
        <mxCell id="hn4ZYdpucegocV_tVcTx-656" value="PK" style="shape=partialRectangle;connectable=0;fillColor=none;top=0;left=0;bottom=0;right=0;fontStyle=1;overflow=hidden;whiteSpace=wrap;html=1;" vertex="1" parent="hn4ZYdpucegocV_tVcTx-655">
          <mxGeometry width="30" height="25" as="geometry">
            <mxRectangle width="30" height="25" as="alternateBounds" />
          </mxGeometry>
        </mxCell>
        <mxCell id="hn4ZYdpucegocV_tVcTx-657" value="idUsuario" style="shape=partialRectangle;connectable=0;fillColor=none;top=0;left=0;bottom=0;right=0;align=left;spacingLeft=6;fontStyle=5;overflow=hidden;whiteSpace=wrap;html=1;" vertex="1" parent="hn4ZYdpucegocV_tVcTx-655">
          <mxGeometry x="30" width="150" height="25" as="geometry">
            <mxRectangle width="150" height="25" as="alternateBounds" />
          </mxGeometry>
        </mxCell>
        <mxCell id="hn4ZYdpucegocV_tVcTx-658" value="" style="shape=tableRow;horizontal=0;startSize=0;swimlaneHead=0;swimlaneBody=0;fillColor=none;collapsible=0;dropTarget=0;points=[[0,0.5],[1,0.5]];portConstraint=eastwest;top=0;left=0;right=0;bottom=0;" vertex="1" parent="hn4ZYdpucegocV_tVcTx-654">
          <mxGeometry y="55" width="180" height="30" as="geometry" />
        </mxCell>
        <mxCell id="hn4ZYdpucegocV_tVcTx-659" value="" style="shape=partialRectangle;connectable=0;fillColor=none;top=0;left=0;bottom=0;right=0;editable=1;overflow=hidden;whiteSpace=wrap;html=1;" vertex="1" parent="hn4ZYdpucegocV_tVcTx-658">
          <mxGeometry width="30" height="30" as="geometry">
            <mxRectangle width="30" height="30" as="alternateBounds" />
          </mxGeometry>
        </mxCell>
        <mxCell id="hn4ZYdpucegocV_tVcTx-660" value="nome" style="shape=partialRectangle;connectable=0;fillColor=none;top=0;left=0;bottom=0;right=0;align=left;spacingLeft=6;overflow=hidden;whiteSpace=wrap;html=1;" vertex="1" parent="hn4ZYdpucegocV_tVcTx-658">
          <mxGeometry x="30" width="150" height="30" as="geometry">
            <mxRectangle width="150" height="30" as="alternateBounds" />
          </mxGeometry>
        </mxCell>
        <mxCell id="hn4ZYdpucegocV_tVcTx-661" value="" style="shape=tableRow;horizontal=0;startSize=0;swimlaneHead=0;swimlaneBody=0;fillColor=none;collapsible=0;dropTarget=0;points=[[0,0.5],[1,0.5]];portConstraint=eastwest;top=0;left=0;right=0;bottom=0;" vertex="1" parent="hn4ZYdpucegocV_tVcTx-654">
          <mxGeometry y="85" width="180" height="30" as="geometry" />
        </mxCell>
        <mxCell id="hn4ZYdpucegocV_tVcTx-662" value="" style="shape=partialRectangle;connectable=0;fillColor=none;top=0;left=0;bottom=0;right=0;editable=1;overflow=hidden;whiteSpace=wrap;html=1;" vertex="1" parent="hn4ZYdpucegocV_tVcTx-661">
          <mxGeometry width="30" height="30" as="geometry">
            <mxRectangle width="30" height="30" as="alternateBounds" />
          </mxGeometry>
        </mxCell>
        <mxCell id="hn4ZYdpucegocV_tVcTx-663" value="telefone" style="shape=partialRectangle;connectable=0;fillColor=none;top=0;left=0;bottom=0;right=0;align=left;spacingLeft=6;overflow=hidden;whiteSpace=wrap;html=1;" vertex="1" parent="hn4ZYdpucegocV_tVcTx-661">
          <mxGeometry x="30" width="150" height="30" as="geometry">
            <mxRectangle width="150" height="30" as="alternateBounds" />
          </mxGeometry>
        </mxCell>
        <mxCell id="hn4ZYdpucegocV_tVcTx-664" value="" style="shape=tableRow;horizontal=0;startSize=0;swimlaneHead=0;swimlaneBody=0;fillColor=none;collapsible=0;dropTarget=0;points=[[0,0.5],[1,0.5]];portConstraint=eastwest;top=0;left=0;right=0;bottom=0;" vertex="1" parent="hn4ZYdpucegocV_tVcTx-654">
          <mxGeometry y="115" width="180" height="30" as="geometry" />
        </mxCell>
        <mxCell id="hn4ZYdpucegocV_tVcTx-665" value="" style="shape=partialRectangle;connectable=0;fillColor=none;top=0;left=0;bottom=0;right=0;editable=1;overflow=hidden;whiteSpace=wrap;html=1;" vertex="1" parent="hn4ZYdpucegocV_tVcTx-664">
          <mxGeometry width="30" height="30" as="geometry">
            <mxRectangle width="30" height="30" as="alternateBounds" />
          </mxGeometry>
        </mxCell>
        <mxCell id="hn4ZYdpucegocV_tVcTx-666" value="email" style="shape=partialRectangle;connectable=0;fillColor=none;top=0;left=0;bottom=0;right=0;align=left;spacingLeft=6;overflow=hidden;whiteSpace=wrap;html=1;" vertex="1" parent="hn4ZYdpucegocV_tVcTx-664">
          <mxGeometry x="30" width="150" height="30" as="geometry">
            <mxRectangle width="150" height="30" as="alternateBounds" />
          </mxGeometry>
        </mxCell>
        <mxCell id="hn4ZYdpucegocV_tVcTx-667" value="" style="shape=tableRow;horizontal=0;startSize=0;swimlaneHead=0;swimlaneBody=0;fillColor=none;collapsible=0;dropTarget=0;points=[[0,0.5],[1,0.5]];portConstraint=eastwest;top=0;left=0;right=0;bottom=0;" vertex="1" parent="hn4ZYdpucegocV_tVcTx-654">
          <mxGeometry y="145" width="180" height="30" as="geometry" />
        </mxCell>
        <mxCell id="hn4ZYdpucegocV_tVcTx-668" value="" style="shape=partialRectangle;connectable=0;fillColor=none;top=0;left=0;bottom=0;right=0;editable=1;overflow=hidden;whiteSpace=wrap;html=1;" vertex="1" parent="hn4ZYdpucegocV_tVcTx-667">
          <mxGeometry width="30" height="30" as="geometry">
            <mxRectangle width="30" height="30" as="alternateBounds" />
          </mxGeometry>
        </mxCell>
        <mxCell id="hn4ZYdpucegocV_tVcTx-669" value="senha" style="shape=partialRectangle;connectable=0;fillColor=none;top=0;left=0;bottom=0;right=0;align=left;spacingLeft=6;overflow=hidden;whiteSpace=wrap;html=1;" vertex="1" parent="hn4ZYdpucegocV_tVcTx-667">
          <mxGeometry x="30" width="150" height="30" as="geometry">
            <mxRectangle width="150" height="30" as="alternateBounds" />
          </mxGeometry>
        </mxCell>
        <mxCell id="hn4ZYdpucegocV_tVcTx-670" value="" style="shape=tableRow;horizontal=0;startSize=0;swimlaneHead=0;swimlaneBody=0;fillColor=none;collapsible=0;dropTarget=0;points=[[0,0.5],[1,0.5]];portConstraint=eastwest;top=0;left=0;right=0;bottom=0;" vertex="1" parent="hn4ZYdpucegocV_tVcTx-654">
          <mxGeometry y="175" width="180" height="30" as="geometry" />
        </mxCell>
        <mxCell id="hn4ZYdpucegocV_tVcTx-671" value="" style="shape=partialRectangle;connectable=0;fillColor=none;top=0;left=0;bottom=0;right=0;editable=1;overflow=hidden;whiteSpace=wrap;html=1;" vertex="1" parent="hn4ZYdpucegocV_tVcTx-670">
          <mxGeometry width="30" height="30" as="geometry">
            <mxRectangle width="30" height="30" as="alternateBounds" />
          </mxGeometry>
        </mxCell>
        <mxCell id="hn4ZYdpucegocV_tVcTx-672" value="dataNascimento" style="shape=partialRectangle;connectable=0;fillColor=none;top=0;left=0;bottom=0;right=0;align=left;spacingLeft=6;overflow=hidden;whiteSpace=wrap;html=1;" vertex="1" parent="hn4ZYdpucegocV_tVcTx-670">
          <mxGeometry x="30" width="150" height="30" as="geometry">
            <mxRectangle width="150" height="30" as="alternateBounds" />
          </mxGeometry>
        </mxCell>
        <mxCell id="hn4ZYdpucegocV_tVcTx-673" value="" style="shape=tableRow;horizontal=0;startSize=0;swimlaneHead=0;swimlaneBody=0;fillColor=none;collapsible=0;dropTarget=0;points=[[0,0.5],[1,0.5]];portConstraint=eastwest;top=0;left=0;right=0;bottom=0;" vertex="1" parent="hn4ZYdpucegocV_tVcTx-654">
          <mxGeometry y="205" width="180" height="30" as="geometry" />
        </mxCell>
        <mxCell id="hn4ZYdpucegocV_tVcTx-674" value="" style="shape=partialRectangle;connectable=0;fillColor=none;top=0;left=0;bottom=0;right=0;editable=1;overflow=hidden;whiteSpace=wrap;html=1;" vertex="1" parent="hn4ZYdpucegocV_tVcTx-673">
          <mxGeometry width="30" height="30" as="geometry">
            <mxRectangle width="30" height="30" as="alternateBounds" />
          </mxGeometry>
        </mxCell>
        <mxCell id="hn4ZYdpucegocV_tVcTx-675" value="cidade" style="shape=partialRectangle;connectable=0;fillColor=none;top=0;left=0;bottom=0;right=0;align=left;spacingLeft=6;overflow=hidden;whiteSpace=wrap;html=1;" vertex="1" parent="hn4ZYdpucegocV_tVcTx-673">
          <mxGeometry x="30" width="150" height="30" as="geometry">
            <mxRectangle width="150" height="30" as="alternateBounds" />
          </mxGeometry>
        </mxCell>
        <mxCell id="hn4ZYdpucegocV_tVcTx-676" value="" style="shape=tableRow;horizontal=0;startSize=0;swimlaneHead=0;swimlaneBody=0;fillColor=none;collapsible=0;dropTarget=0;points=[[0,0.5],[1,0.5]];portConstraint=eastwest;top=0;left=0;right=0;bottom=0;" vertex="1" parent="hn4ZYdpucegocV_tVcTx-654">
          <mxGeometry y="235" width="180" height="30" as="geometry" />
        </mxCell>
        <mxCell id="hn4ZYdpucegocV_tVcTx-677" value="" style="shape=partialRectangle;connectable=0;fillColor=none;top=0;left=0;bottom=0;right=0;editable=1;overflow=hidden;whiteSpace=wrap;html=1;" vertex="1" parent="hn4ZYdpucegocV_tVcTx-676">
          <mxGeometry width="30" height="30" as="geometry">
            <mxRectangle width="30" height="30" as="alternateBounds" />
          </mxGeometry>
        </mxCell>
        <mxCell id="hn4ZYdpucegocV_tVcTx-678" value="usuarioAdm" style="shape=partialRectangle;connectable=0;fillColor=none;top=0;left=0;bottom=0;right=0;align=left;spacingLeft=6;overflow=hidden;whiteSpace=wrap;html=1;" vertex="1" parent="hn4ZYdpucegocV_tVcTx-676">
          <mxGeometry x="30" width="150" height="30" as="geometry">
            <mxRectangle width="150" height="30" as="alternateBounds" />
          </mxGeometry>
        </mxCell>
        <mxCell id="hn4ZYdpucegocV_tVcTx-679" style="edgeStyle=orthogonalEdgeStyle;rounded=0;orthogonalLoop=1;jettySize=auto;html=1;endArrow=ERoneToMany;endFill=0;" edge="1" source="hn4ZYdpucegocV_tVcTx-680" target="hn4ZYdpucegocV_tVcTx-641" parent="1">
          <mxGeometry relative="1" as="geometry">
            <Array as="points">
              <mxPoint x="1623" y="1238" />
            </Array>
          </mxGeometry>
        </mxCell>
        <mxCell id="hn4ZYdpucegocV_tVcTx-680" value="UsuarioGerenciador" style="shape=table;startSize=30;container=1;collapsible=1;childLayout=tableLayout;fixedRows=1;rowLines=0;fontStyle=1;align=center;resizeLast=1;html=1;" vertex="1" parent="1">
          <mxGeometry x="1231" y="1061" width="196" height="219.36842105263167" as="geometry" />
        </mxCell>
        <mxCell id="hn4ZYdpucegocV_tVcTx-681" value="" style="shape=tableRow;horizontal=0;startSize=0;swimlaneHead=0;swimlaneBody=0;fillColor=none;collapsible=0;dropTarget=0;points=[[0,0.5],[1,0.5]];portConstraint=eastwest;top=0;left=0;right=0;bottom=1;" vertex="1" parent="hn4ZYdpucegocV_tVcTx-680">
          <mxGeometry y="30" width="196" height="35" as="geometry" />
        </mxCell>
        <mxCell id="hn4ZYdpucegocV_tVcTx-682" value="PK" style="shape=partialRectangle;connectable=0;fillColor=none;top=0;left=0;bottom=0;right=0;fontStyle=1;overflow=hidden;whiteSpace=wrap;html=1;" vertex="1" parent="hn4ZYdpucegocV_tVcTx-681">
          <mxGeometry width="26.08701490319315" height="35" as="geometry">
            <mxRectangle width="26.08701490319315" height="35" as="alternateBounds" />
          </mxGeometry>
        </mxCell>
        <mxCell id="hn4ZYdpucegocV_tVcTx-683" value="idUsuarioGerenciador" style="shape=partialRectangle;connectable=0;fillColor=none;top=0;left=0;bottom=0;right=0;align=left;spacingLeft=6;fontStyle=5;overflow=hidden;whiteSpace=wrap;html=1;" vertex="1" parent="hn4ZYdpucegocV_tVcTx-681">
          <mxGeometry x="26.08701490319315" width="169.91298509680684" height="35" as="geometry">
            <mxRectangle width="169.91298509680684" height="35" as="alternateBounds" />
          </mxGeometry>
        </mxCell>
        <mxCell id="hn4ZYdpucegocV_tVcTx-684" value="" style="shape=tableRow;horizontal=0;startSize=0;swimlaneHead=0;swimlaneBody=0;fillColor=none;collapsible=0;dropTarget=0;points=[[0,0.5],[1,0.5]];portConstraint=eastwest;top=0;left=0;right=0;bottom=0;swimlaneFillColor=none;swimlaneLine=0;perimeterSpacing=1;" vertex="1" parent="hn4ZYdpucegocV_tVcTx-680">
          <mxGeometry y="65" width="196" height="34" as="geometry" />
        </mxCell>
        <mxCell id="hn4ZYdpucegocV_tVcTx-685" value="&lt;b&gt;FK&lt;/b&gt;" style="shape=partialRectangle;connectable=0;fillColor=none;top=0;left=0;bottom=0;right=0;editable=1;overflow=hidden;whiteSpace=wrap;html=1;" vertex="1" parent="hn4ZYdpucegocV_tVcTx-684">
          <mxGeometry width="26.08701490319315" height="34" as="geometry">
            <mxRectangle width="26.08701490319315" height="34" as="alternateBounds" />
          </mxGeometry>
        </mxCell>
        <mxCell id="hn4ZYdpucegocV_tVcTx-686" value="&lt;b&gt;idUsuario&lt;/b&gt;" style="shape=partialRectangle;connectable=0;fillColor=none;top=0;left=0;bottom=0;right=0;align=left;spacingLeft=6;overflow=hidden;whiteSpace=wrap;html=1;" vertex="1" parent="hn4ZYdpucegocV_tVcTx-684">
          <mxGeometry x="26.08701490319315" width="169.91298509680684" height="34" as="geometry">
            <mxRectangle width="169.91298509680684" height="34" as="alternateBounds" />
          </mxGeometry>
        </mxCell>
        <mxCell id="hn4ZYdpucegocV_tVcTx-687" value="" style="shape=tableRow;horizontal=0;startSize=0;swimlaneHead=0;swimlaneBody=0;fillColor=none;collapsible=0;dropTarget=0;points=[[0,0.5],[1,0.5]];portConstraint=eastwest;top=0;left=0;right=0;bottom=0;" vertex="1" parent="hn4ZYdpucegocV_tVcTx-680">
          <mxGeometry y="99" width="196" height="30" as="geometry" />
        </mxCell>
        <mxCell id="hn4ZYdpucegocV_tVcTx-688" value="" style="shape=partialRectangle;connectable=0;fillColor=none;top=0;left=0;bottom=0;right=0;editable=1;overflow=hidden;whiteSpace=wrap;html=1;" vertex="1" parent="hn4ZYdpucegocV_tVcTx-687">
          <mxGeometry width="26.08701490319315" height="30" as="geometry">
            <mxRectangle width="26.08701490319315" height="30" as="alternateBounds" />
          </mxGeometry>
        </mxCell>
        <mxCell id="hn4ZYdpucegocV_tVcTx-689" value="usuarioAdmFrota" style="shape=partialRectangle;connectable=0;fillColor=none;top=0;left=0;bottom=0;right=0;align=left;spacingLeft=6;overflow=hidden;whiteSpace=wrap;html=1;" vertex="1" parent="hn4ZYdpucegocV_tVcTx-687">
          <mxGeometry x="26.08701490319315" width="169.91298509680684" height="30" as="geometry">
            <mxRectangle width="169.91298509680684" height="30" as="alternateBounds" />
          </mxGeometry>
        </mxCell>
        <mxCell id="hn4ZYdpucegocV_tVcTx-690" value="" style="shape=tableRow;horizontal=0;startSize=0;swimlaneHead=0;swimlaneBody=0;fillColor=none;collapsible=0;dropTarget=0;points=[[0,0.5],[1,0.5]];portConstraint=eastwest;top=0;left=0;right=0;bottom=0;" vertex="1" parent="hn4ZYdpucegocV_tVcTx-680">
          <mxGeometry y="129" width="196" height="30" as="geometry" />
        </mxCell>
        <mxCell id="hn4ZYdpucegocV_tVcTx-691" value="" style="shape=partialRectangle;connectable=0;fillColor=none;top=0;left=0;bottom=0;right=0;editable=1;overflow=hidden;whiteSpace=wrap;html=1;" vertex="1" parent="hn4ZYdpucegocV_tVcTx-690">
          <mxGeometry width="26.08701490319315" height="30" as="geometry">
            <mxRectangle width="26.08701490319315" height="30" as="alternateBounds" />
          </mxGeometry>
        </mxCell>
        <mxCell id="hn4ZYdpucegocV_tVcTx-692" value="nomeEmpresa" style="shape=partialRectangle;connectable=0;fillColor=none;top=0;left=0;bottom=0;right=0;align=left;spacingLeft=6;overflow=hidden;whiteSpace=wrap;html=1;" vertex="1" parent="hn4ZYdpucegocV_tVcTx-690">
          <mxGeometry x="26.08701490319315" width="169.91298509680684" height="30" as="geometry">
            <mxRectangle width="169.91298509680684" height="30" as="alternateBounds" />
          </mxGeometry>
        </mxCell>
        <mxCell id="hn4ZYdpucegocV_tVcTx-693" value="" style="shape=tableRow;horizontal=0;startSize=0;swimlaneHead=0;swimlaneBody=0;fillColor=none;collapsible=0;dropTarget=0;points=[[0,0.5],[1,0.5]];portConstraint=eastwest;top=0;left=0;right=0;bottom=0;" vertex="1" parent="hn4ZYdpucegocV_tVcTx-680">
          <mxGeometry y="159" width="196" height="30" as="geometry" />
        </mxCell>
        <mxCell id="hn4ZYdpucegocV_tVcTx-694" value="" style="shape=partialRectangle;connectable=0;fillColor=none;top=0;left=0;bottom=0;right=0;editable=1;overflow=hidden;whiteSpace=wrap;html=1;" vertex="1" parent="hn4ZYdpucegocV_tVcTx-693">
          <mxGeometry width="26.08701490319315" height="30" as="geometry">
            <mxRectangle width="26.08701490319315" height="30" as="alternateBounds" />
          </mxGeometry>
        </mxCell>
        <mxCell id="hn4ZYdpucegocV_tVcTx-695" value="cidadeEmpresa" style="shape=partialRectangle;connectable=0;fillColor=none;top=0;left=0;bottom=0;right=0;align=left;spacingLeft=6;overflow=hidden;whiteSpace=wrap;html=1;" vertex="1" parent="hn4ZYdpucegocV_tVcTx-693">
          <mxGeometry x="26.08701490319315" width="169.91298509680684" height="30" as="geometry">
            <mxRectangle width="169.91298509680684" height="30" as="alternateBounds" />
          </mxGeometry>
        </mxCell>
        <mxCell id="hn4ZYdpucegocV_tVcTx-696" value="" style="shape=tableRow;horizontal=0;startSize=0;swimlaneHead=0;swimlaneBody=0;fillColor=none;collapsible=0;dropTarget=0;points=[[0,0.5],[1,0.5]];portConstraint=eastwest;top=0;left=0;right=0;bottom=0;" vertex="1" parent="hn4ZYdpucegocV_tVcTx-680">
          <mxGeometry y="189" width="196" height="30" as="geometry" />
        </mxCell>
        <mxCell id="hn4ZYdpucegocV_tVcTx-697" value="" style="shape=partialRectangle;connectable=0;fillColor=none;top=0;left=0;bottom=0;right=0;editable=1;overflow=hidden;whiteSpace=wrap;html=1;" vertex="1" parent="hn4ZYdpucegocV_tVcTx-696">
          <mxGeometry width="26.08701490319315" height="30" as="geometry">
            <mxRectangle width="26.08701490319315" height="30" as="alternateBounds" />
          </mxGeometry>
        </mxCell>
        <mxCell id="hn4ZYdpucegocV_tVcTx-698" value="cnpj" style="shape=partialRectangle;connectable=0;fillColor=none;top=0;left=0;bottom=0;right=0;align=left;spacingLeft=6;overflow=hidden;whiteSpace=wrap;html=1;" vertex="1" parent="hn4ZYdpucegocV_tVcTx-696">
          <mxGeometry x="26.08701490319315" width="169.91298509680684" height="30" as="geometry">
            <mxRectangle width="169.91298509680684" height="30" as="alternateBounds" />
          </mxGeometry>
        </mxCell>
        <mxCell id="hn4ZYdpucegocV_tVcTx-703" style="edgeStyle=orthogonalEdgeStyle;rounded=0;orthogonalLoop=1;jettySize=auto;html=1;endArrow=ERmandOne;endFill=0;startArrow=ERmandOne;startFill=0;" edge="1" source="hn4ZYdpucegocV_tVcTx-704" target="hn4ZYdpucegocV_tVcTx-714" parent="1">
          <mxGeometry relative="1" as="geometry" />
        </mxCell>
        <mxCell id="hn4ZYdpucegocV_tVcTx-704" value="Motorista" style="shape=table;startSize=30;container=1;collapsible=1;childLayout=tableLayout;fixedRows=1;rowLines=0;fontStyle=1;align=center;resizeLast=1;html=1;" vertex="1" parent="1">
          <mxGeometry x="939" y="985" width="196" height="120" as="geometry" />
        </mxCell>
        <mxCell id="hn4ZYdpucegocV_tVcTx-705" value="" style="shape=tableRow;horizontal=0;startSize=0;swimlaneHead=0;swimlaneBody=0;fillColor=none;collapsible=0;dropTarget=0;points=[[0,0.5],[1,0.5]];portConstraint=eastwest;top=0;left=0;right=0;bottom=1;" vertex="1" parent="hn4ZYdpucegocV_tVcTx-704">
          <mxGeometry y="30" width="196" height="30" as="geometry" />
        </mxCell>
        <mxCell id="hn4ZYdpucegocV_tVcTx-706" value="PK" style="shape=partialRectangle;connectable=0;fillColor=none;top=0;left=0;bottom=0;right=0;fontStyle=1;overflow=hidden;whiteSpace=wrap;html=1;" vertex="1" parent="hn4ZYdpucegocV_tVcTx-705">
          <mxGeometry width="30" height="30" as="geometry">
            <mxRectangle width="30" height="30" as="alternateBounds" />
          </mxGeometry>
        </mxCell>
        <mxCell id="hn4ZYdpucegocV_tVcTx-707" value="idMotorista" style="shape=partialRectangle;connectable=0;fillColor=none;top=0;left=0;bottom=0;right=0;align=left;spacingLeft=6;fontStyle=5;overflow=hidden;whiteSpace=wrap;html=1;" vertex="1" parent="hn4ZYdpucegocV_tVcTx-705">
          <mxGeometry x="30" width="166" height="30" as="geometry">
            <mxRectangle width="166" height="30" as="alternateBounds" />
          </mxGeometry>
        </mxCell>
        <mxCell id="hn4ZYdpucegocV_tVcTx-708" value="" style="shape=tableRow;horizontal=0;startSize=0;swimlaneHead=0;swimlaneBody=0;fillColor=none;collapsible=0;dropTarget=0;points=[[0,0.5],[1,0.5]];portConstraint=eastwest;top=0;left=0;right=0;bottom=0;" vertex="1" parent="hn4ZYdpucegocV_tVcTx-704">
          <mxGeometry y="60" width="196" height="30" as="geometry" />
        </mxCell>
        <mxCell id="hn4ZYdpucegocV_tVcTx-709" value="&lt;b&gt;PK&lt;/b&gt;" style="shape=partialRectangle;connectable=0;fillColor=none;top=0;left=0;bottom=0;right=0;editable=1;overflow=hidden;whiteSpace=wrap;html=1;" vertex="1" parent="hn4ZYdpucegocV_tVcTx-708">
          <mxGeometry width="30" height="30" as="geometry">
            <mxRectangle width="30" height="30" as="alternateBounds" />
          </mxGeometry>
        </mxCell>
        <mxCell id="hn4ZYdpucegocV_tVcTx-710" value="&lt;b&gt;idUsuarioGerenciador&lt;/b&gt;" style="shape=partialRectangle;connectable=0;fillColor=none;top=0;left=0;bottom=0;right=0;align=left;spacingLeft=6;overflow=hidden;whiteSpace=wrap;html=1;" vertex="1" parent="hn4ZYdpucegocV_tVcTx-708">
          <mxGeometry x="30" width="166" height="30" as="geometry">
            <mxRectangle width="166" height="30" as="alternateBounds" />
          </mxGeometry>
        </mxCell>
        <mxCell id="hn4ZYdpucegocV_tVcTx-711" value="" style="shape=tableRow;horizontal=0;startSize=0;swimlaneHead=0;swimlaneBody=0;fillColor=none;collapsible=0;dropTarget=0;points=[[0,0.5],[1,0.5]];portConstraint=eastwest;top=0;left=0;right=0;bottom=1;" vertex="1" parent="hn4ZYdpucegocV_tVcTx-704">
          <mxGeometry y="90" width="196" height="30" as="geometry" />
        </mxCell>
        <mxCell id="hn4ZYdpucegocV_tVcTx-712" value="" style="shape=partialRectangle;connectable=0;fillColor=none;top=0;left=0;bottom=0;right=0;fontStyle=1;overflow=hidden;whiteSpace=wrap;html=1;" vertex="1" parent="hn4ZYdpucegocV_tVcTx-711">
          <mxGeometry width="30" height="30" as="geometry">
            <mxRectangle width="30" height="30" as="alternateBounds" />
          </mxGeometry>
        </mxCell>
        <mxCell id="hn4ZYdpucegocV_tVcTx-713" value="&lt;span style=&quot;font-weight: normal;&quot;&gt;cpf&lt;/span&gt;" style="shape=partialRectangle;connectable=0;fillColor=none;top=0;left=0;bottom=0;right=0;align=left;spacingLeft=6;fontStyle=5;overflow=hidden;whiteSpace=wrap;html=1;" vertex="1" parent="hn4ZYdpucegocV_tVcTx-711">
          <mxGeometry x="30" width="166" height="30" as="geometry">
            <mxRectangle width="166" height="30" as="alternateBounds" />
          </mxGeometry>
        </mxCell>
        <mxCell id="hn4ZYdpucegocV_tVcTx-714" value="Veiculo" style="shape=table;startSize=30;container=1;collapsible=1;childLayout=tableLayout;fixedRows=1;rowLines=0;fontStyle=1;align=center;resizeLast=1;html=1;" vertex="1" parent="1">
          <mxGeometry x="942" y="1161" width="196" height="180.0001156455594" as="geometry" />
        </mxCell>
        <mxCell id="hn4ZYdpucegocV_tVcTx-715" value="" style="shape=tableRow;horizontal=0;startSize=0;swimlaneHead=0;swimlaneBody=0;fillColor=none;collapsible=0;dropTarget=0;points=[[0,0.5],[1,0.5]];portConstraint=eastwest;top=0;left=0;right=0;bottom=1;" vertex="1" parent="hn4ZYdpucegocV_tVcTx-714">
          <mxGeometry y="30" width="196" height="30" as="geometry" />
        </mxCell>
        <mxCell id="hn4ZYdpucegocV_tVcTx-716" value="PK" style="shape=partialRectangle;connectable=0;fillColor=none;top=0;left=0;bottom=0;right=0;fontStyle=1;overflow=hidden;whiteSpace=wrap;html=1;" vertex="1" parent="hn4ZYdpucegocV_tVcTx-715">
          <mxGeometry width="30" height="30" as="geometry">
            <mxRectangle width="30" height="30" as="alternateBounds" />
          </mxGeometry>
        </mxCell>
        <mxCell id="hn4ZYdpucegocV_tVcTx-717" value="idVeiculo" style="shape=partialRectangle;connectable=0;fillColor=none;top=0;left=0;bottom=0;right=0;align=left;spacingLeft=6;fontStyle=5;overflow=hidden;whiteSpace=wrap;html=1;" vertex="1" parent="hn4ZYdpucegocV_tVcTx-715">
          <mxGeometry x="30" width="166" height="30" as="geometry">
            <mxRectangle width="166" height="30" as="alternateBounds" />
          </mxGeometry>
        </mxCell>
        <mxCell id="hn4ZYdpucegocV_tVcTx-718" value="" style="shape=tableRow;horizontal=0;startSize=0;swimlaneHead=0;swimlaneBody=0;fillColor=none;collapsible=0;dropTarget=0;points=[[0,0.5],[1,0.5]];portConstraint=eastwest;top=0;left=0;right=0;bottom=0;" vertex="1" parent="hn4ZYdpucegocV_tVcTx-714">
          <mxGeometry y="60" width="196" height="30" as="geometry" />
        </mxCell>
        <mxCell id="hn4ZYdpucegocV_tVcTx-719" value="&lt;b&gt;FK&lt;/b&gt;" style="shape=partialRectangle;connectable=0;fillColor=none;top=0;left=0;bottom=0;right=0;editable=1;overflow=hidden;whiteSpace=wrap;html=1;" vertex="1" parent="hn4ZYdpucegocV_tVcTx-718">
          <mxGeometry width="30" height="30" as="geometry">
            <mxRectangle width="30" height="30" as="alternateBounds" />
          </mxGeometry>
        </mxCell>
        <mxCell id="hn4ZYdpucegocV_tVcTx-720" value="&lt;b style=&quot;border-color: var(--border-color);&quot;&gt;idUsuario&lt;/b&gt;" style="shape=partialRectangle;connectable=0;fillColor=none;top=0;left=0;bottom=0;right=0;align=left;spacingLeft=6;overflow=hidden;whiteSpace=wrap;html=1;" vertex="1" parent="hn4ZYdpucegocV_tVcTx-718">
          <mxGeometry x="30" width="166" height="30" as="geometry">
            <mxRectangle width="166" height="30" as="alternateBounds" />
          </mxGeometry>
        </mxCell>
        <mxCell id="hn4ZYdpucegocV_tVcTx-721" value="" style="shape=tableRow;horizontal=0;startSize=0;swimlaneHead=0;swimlaneBody=0;fillColor=none;collapsible=0;dropTarget=0;points=[[0,0.5],[1,0.5]];portConstraint=eastwest;top=0;left=0;right=0;bottom=0;" vertex="1" parent="hn4ZYdpucegocV_tVcTx-714">
          <mxGeometry y="90" width="196" height="30" as="geometry" />
        </mxCell>
        <mxCell id="hn4ZYdpucegocV_tVcTx-722" value="" style="shape=partialRectangle;connectable=0;fillColor=none;top=0;left=0;bottom=0;right=0;editable=1;overflow=hidden;whiteSpace=wrap;html=1;" vertex="1" parent="hn4ZYdpucegocV_tVcTx-721">
          <mxGeometry width="30" height="30" as="geometry">
            <mxRectangle width="30" height="30" as="alternateBounds" />
          </mxGeometry>
        </mxCell>
        <mxCell id="hn4ZYdpucegocV_tVcTx-723" value="codigoChassi" style="shape=partialRectangle;connectable=0;fillColor=none;top=0;left=0;bottom=0;right=0;align=left;spacingLeft=6;overflow=hidden;whiteSpace=wrap;html=1;" vertex="1" parent="hn4ZYdpucegocV_tVcTx-721">
          <mxGeometry x="30" width="166" height="30" as="geometry">
            <mxRectangle width="166" height="30" as="alternateBounds" />
          </mxGeometry>
        </mxCell>
        <mxCell id="hn4ZYdpucegocV_tVcTx-724" value="" style="shape=tableRow;horizontal=0;startSize=0;swimlaneHead=0;swimlaneBody=0;fillColor=none;collapsible=0;dropTarget=0;points=[[0,0.5],[1,0.5]];portConstraint=eastwest;top=0;left=0;right=0;bottom=0;" vertex="1" parent="hn4ZYdpucegocV_tVcTx-714">
          <mxGeometry y="120" width="196" height="30" as="geometry" />
        </mxCell>
        <mxCell id="hn4ZYdpucegocV_tVcTx-725" value="" style="shape=partialRectangle;connectable=0;fillColor=none;top=0;left=0;bottom=0;right=0;editable=1;overflow=hidden;whiteSpace=wrap;html=1;" vertex="1" parent="hn4ZYdpucegocV_tVcTx-724">
          <mxGeometry width="30" height="30" as="geometry">
            <mxRectangle width="30" height="30" as="alternateBounds" />
          </mxGeometry>
        </mxCell>
        <mxCell id="hn4ZYdpucegocV_tVcTx-726" value="marcaVeiculo" style="shape=partialRectangle;connectable=0;fillColor=none;top=0;left=0;bottom=0;right=0;align=left;spacingLeft=6;overflow=hidden;whiteSpace=wrap;html=1;" vertex="1" parent="hn4ZYdpucegocV_tVcTx-724">
          <mxGeometry x="30" width="166" height="30" as="geometry">
            <mxRectangle width="166" height="30" as="alternateBounds" />
          </mxGeometry>
        </mxCell>
        <mxCell id="hn4ZYdpucegocV_tVcTx-727" value="" style="shape=tableRow;horizontal=0;startSize=0;swimlaneHead=0;swimlaneBody=0;fillColor=none;collapsible=0;dropTarget=0;points=[[0,0.5],[1,0.5]];portConstraint=eastwest;top=0;left=0;right=0;bottom=0;" vertex="1" parent="hn4ZYdpucegocV_tVcTx-714">
          <mxGeometry y="150" width="196" height="30" as="geometry" />
        </mxCell>
        <mxCell id="hn4ZYdpucegocV_tVcTx-728" value="" style="shape=partialRectangle;connectable=0;fillColor=none;top=0;left=0;bottom=0;right=0;editable=1;overflow=hidden;whiteSpace=wrap;html=1;" vertex="1" parent="hn4ZYdpucegocV_tVcTx-727">
          <mxGeometry width="30" height="30" as="geometry">
            <mxRectangle width="30" height="30" as="alternateBounds" />
          </mxGeometry>
        </mxCell>
        <mxCell id="hn4ZYdpucegocV_tVcTx-729" value="placaCaminhao" style="shape=partialRectangle;connectable=0;fillColor=none;top=0;left=0;bottom=0;right=0;align=left;spacingLeft=6;overflow=hidden;whiteSpace=wrap;html=1;" vertex="1" parent="hn4ZYdpucegocV_tVcTx-727">
          <mxGeometry x="30" width="166" height="30" as="geometry">
            <mxRectangle width="166" height="30" as="alternateBounds" />
          </mxGeometry>
        </mxCell>
        <mxCell id="hn4ZYdpucegocV_tVcTx-730" value="Checklist" style="shape=table;startSize=30;container=1;collapsible=1;childLayout=tableLayout;fixedRows=1;rowLines=0;fontStyle=1;align=center;resizeLast=1;html=1;" vertex="1" parent="1">
          <mxGeometry x="1240" y="1318" width="196" height="240" as="geometry" />
        </mxCell>
        <mxCell id="hn4ZYdpucegocV_tVcTx-731" value="" style="shape=tableRow;horizontal=0;startSize=0;swimlaneHead=0;swimlaneBody=0;fillColor=none;collapsible=0;dropTarget=0;points=[[0,0.5],[1,0.5]];portConstraint=eastwest;top=0;left=0;right=0;bottom=1;" vertex="1" parent="hn4ZYdpucegocV_tVcTx-730">
          <mxGeometry y="30" width="196" height="30" as="geometry" />
        </mxCell>
        <mxCell id="hn4ZYdpucegocV_tVcTx-732" value="PK" style="shape=partialRectangle;connectable=0;fillColor=none;top=0;left=0;bottom=0;right=0;fontStyle=1;overflow=hidden;whiteSpace=wrap;html=1;" vertex="1" parent="hn4ZYdpucegocV_tVcTx-731">
          <mxGeometry width="30" height="30" as="geometry">
            <mxRectangle width="30" height="30" as="alternateBounds" />
          </mxGeometry>
        </mxCell>
        <mxCell id="hn4ZYdpucegocV_tVcTx-733" value="idChecklist" style="shape=partialRectangle;connectable=0;fillColor=none;top=0;left=0;bottom=0;right=0;align=left;spacingLeft=6;fontStyle=5;overflow=hidden;whiteSpace=wrap;html=1;" vertex="1" parent="hn4ZYdpucegocV_tVcTx-731">
          <mxGeometry x="30" width="166" height="30" as="geometry">
            <mxRectangle width="166" height="30" as="alternateBounds" />
          </mxGeometry>
        </mxCell>
        <mxCell id="hn4ZYdpucegocV_tVcTx-734" value="" style="shape=tableRow;horizontal=0;startSize=0;swimlaneHead=0;swimlaneBody=0;fillColor=none;collapsible=0;dropTarget=0;points=[[0,0.5],[1,0.5]];portConstraint=eastwest;top=0;left=0;right=0;bottom=0;" vertex="1" parent="hn4ZYdpucegocV_tVcTx-730">
          <mxGeometry y="60" width="196" height="30" as="geometry" />
        </mxCell>
        <mxCell id="hn4ZYdpucegocV_tVcTx-735" value="&lt;b&gt;FK&lt;/b&gt;" style="shape=partialRectangle;connectable=0;fillColor=none;top=0;left=0;bottom=0;right=0;editable=1;overflow=hidden;whiteSpace=wrap;html=1;" vertex="1" parent="hn4ZYdpucegocV_tVcTx-734">
          <mxGeometry width="30" height="30" as="geometry">
            <mxRectangle width="30" height="30" as="alternateBounds" />
          </mxGeometry>
        </mxCell>
        <mxCell id="hn4ZYdpucegocV_tVcTx-736" value="&lt;b&gt;idVeiculo&lt;/b&gt;" style="shape=partialRectangle;connectable=0;fillColor=none;top=0;left=0;bottom=0;right=0;align=left;spacingLeft=6;overflow=hidden;whiteSpace=wrap;html=1;" vertex="1" parent="hn4ZYdpucegocV_tVcTx-734">
          <mxGeometry x="30" width="166" height="30" as="geometry">
            <mxRectangle width="166" height="30" as="alternateBounds" />
          </mxGeometry>
        </mxCell>
        <mxCell id="hn4ZYdpucegocV_tVcTx-737" value="" style="shape=tableRow;horizontal=0;startSize=0;swimlaneHead=0;swimlaneBody=0;fillColor=none;collapsible=0;dropTarget=0;points=[[0,0.5],[1,0.5]];portConstraint=eastwest;top=0;left=0;right=0;bottom=0;" vertex="1" parent="hn4ZYdpucegocV_tVcTx-730">
          <mxGeometry y="90" width="196" height="30" as="geometry" />
        </mxCell>
        <mxCell id="hn4ZYdpucegocV_tVcTx-738" value="" style="shape=partialRectangle;connectable=0;fillColor=none;top=0;left=0;bottom=0;right=0;editable=1;overflow=hidden;whiteSpace=wrap;html=1;" vertex="1" parent="hn4ZYdpucegocV_tVcTx-737">
          <mxGeometry width="30" height="30" as="geometry">
            <mxRectangle width="30" height="30" as="alternateBounds" />
          </mxGeometry>
        </mxCell>
        <mxCell id="hn4ZYdpucegocV_tVcTx-739" value="freioOk" style="shape=partialRectangle;connectable=0;fillColor=none;top=0;left=0;bottom=0;right=0;align=left;spacingLeft=6;overflow=hidden;whiteSpace=wrap;html=1;" vertex="1" parent="hn4ZYdpucegocV_tVcTx-737">
          <mxGeometry x="30" width="166" height="30" as="geometry">
            <mxRectangle width="166" height="30" as="alternateBounds" />
          </mxGeometry>
        </mxCell>
        <mxCell id="hn4ZYdpucegocV_tVcTx-740" value="" style="shape=tableRow;horizontal=0;startSize=0;swimlaneHead=0;swimlaneBody=0;fillColor=none;collapsible=0;dropTarget=0;points=[[0,0.5],[1,0.5]];portConstraint=eastwest;top=0;left=0;right=0;bottom=0;" vertex="1" parent="hn4ZYdpucegocV_tVcTx-730">
          <mxGeometry y="120" width="196" height="30" as="geometry" />
        </mxCell>
        <mxCell id="hn4ZYdpucegocV_tVcTx-741" value="" style="shape=partialRectangle;connectable=0;fillColor=none;top=0;left=0;bottom=0;right=0;editable=1;overflow=hidden;whiteSpace=wrap;html=1;" vertex="1" parent="hn4ZYdpucegocV_tVcTx-740">
          <mxGeometry width="30" height="30" as="geometry">
            <mxRectangle width="30" height="30" as="alternateBounds" />
          </mxGeometry>
        </mxCell>
        <mxCell id="hn4ZYdpucegocV_tVcTx-742" value="combustivelOk" style="shape=partialRectangle;connectable=0;fillColor=none;top=0;left=0;bottom=0;right=0;align=left;spacingLeft=6;overflow=hidden;whiteSpace=wrap;html=1;" vertex="1" parent="hn4ZYdpucegocV_tVcTx-740">
          <mxGeometry x="30" width="166" height="30" as="geometry">
            <mxRectangle width="166" height="30" as="alternateBounds" />
          </mxGeometry>
        </mxCell>
        <mxCell id="hn4ZYdpucegocV_tVcTx-743" value="" style="shape=tableRow;horizontal=0;startSize=0;swimlaneHead=0;swimlaneBody=0;fillColor=none;collapsible=0;dropTarget=0;points=[[0,0.5],[1,0.5]];portConstraint=eastwest;top=0;left=0;right=0;bottom=0;" vertex="1" parent="hn4ZYdpucegocV_tVcTx-730">
          <mxGeometry y="150" width="196" height="30" as="geometry" />
        </mxCell>
        <mxCell id="hn4ZYdpucegocV_tVcTx-744" value="" style="shape=partialRectangle;connectable=0;fillColor=none;top=0;left=0;bottom=0;right=0;editable=1;overflow=hidden;whiteSpace=wrap;html=1;" vertex="1" parent="hn4ZYdpucegocV_tVcTx-743">
          <mxGeometry width="30" height="30" as="geometry">
            <mxRectangle width="30" height="30" as="alternateBounds" />
          </mxGeometry>
        </mxCell>
        <mxCell id="hn4ZYdpucegocV_tVcTx-745" value="oleoOk" style="shape=partialRectangle;connectable=0;fillColor=none;top=0;left=0;bottom=0;right=0;align=left;spacingLeft=6;overflow=hidden;whiteSpace=wrap;html=1;" vertex="1" parent="hn4ZYdpucegocV_tVcTx-743">
          <mxGeometry x="30" width="166" height="30" as="geometry">
            <mxRectangle width="166" height="30" as="alternateBounds" />
          </mxGeometry>
        </mxCell>
        <mxCell id="hn4ZYdpucegocV_tVcTx-746" value="" style="shape=tableRow;horizontal=0;startSize=0;swimlaneHead=0;swimlaneBody=0;fillColor=none;collapsible=0;dropTarget=0;points=[[0,0.5],[1,0.5]];portConstraint=eastwest;top=0;left=0;right=0;bottom=0;" vertex="1" parent="hn4ZYdpucegocV_tVcTx-730">
          <mxGeometry y="180" width="196" height="30" as="geometry" />
        </mxCell>
        <mxCell id="hn4ZYdpucegocV_tVcTx-747" value="" style="shape=partialRectangle;connectable=0;fillColor=none;top=0;left=0;bottom=0;right=0;editable=1;overflow=hidden;whiteSpace=wrap;html=1;" vertex="1" parent="hn4ZYdpucegocV_tVcTx-746">
          <mxGeometry width="30" height="30" as="geometry">
            <mxRectangle width="30" height="30" as="alternateBounds" />
          </mxGeometry>
        </mxCell>
        <mxCell id="hn4ZYdpucegocV_tVcTx-748" value="fotoPneu" style="shape=partialRectangle;connectable=0;fillColor=none;top=0;left=0;bottom=0;right=0;align=left;spacingLeft=6;overflow=hidden;whiteSpace=wrap;html=1;" vertex="1" parent="hn4ZYdpucegocV_tVcTx-746">
          <mxGeometry x="30" width="166" height="30" as="geometry">
            <mxRectangle width="166" height="30" as="alternateBounds" />
          </mxGeometry>
        </mxCell>
        <mxCell id="hn4ZYdpucegocV_tVcTx-749" value="" style="shape=tableRow;horizontal=0;startSize=0;swimlaneHead=0;swimlaneBody=0;fillColor=none;collapsible=0;dropTarget=0;points=[[0,0.5],[1,0.5]];portConstraint=eastwest;top=0;left=0;right=0;bottom=1;" vertex="1" parent="hn4ZYdpucegocV_tVcTx-730">
          <mxGeometry y="210" width="196" height="30" as="geometry" />
        </mxCell>
        <mxCell id="hn4ZYdpucegocV_tVcTx-750" value="" style="shape=partialRectangle;connectable=0;fillColor=none;top=0;left=0;bottom=0;right=0;fontStyle=1;overflow=hidden;whiteSpace=wrap;html=1;" vertex="1" parent="hn4ZYdpucegocV_tVcTx-749">
          <mxGeometry width="30" height="30" as="geometry">
            <mxRectangle width="30" height="30" as="alternateBounds" />
          </mxGeometry>
        </mxCell>
        <mxCell id="hn4ZYdpucegocV_tVcTx-751" value="&lt;span style=&quot;font-weight: normal;&quot;&gt;arCondicionadoOk&lt;/span&gt;" style="shape=partialRectangle;connectable=0;fillColor=none;top=0;left=0;bottom=0;right=0;align=left;spacingLeft=6;fontStyle=5;overflow=hidden;whiteSpace=wrap;html=1;" vertex="1" parent="hn4ZYdpucegocV_tVcTx-749">
          <mxGeometry x="30" width="166" height="30" as="geometry">
            <mxRectangle width="166" height="30" as="alternateBounds" />
          </mxGeometry>
        </mxCell>
        <mxCell id="hn4ZYdpucegocV_tVcTx-752" value="" style="edgeStyle=entityRelationEdgeStyle;fontSize=12;html=1;endArrow=ERoneToMany;rounded=0;" edge="1" source="hn4ZYdpucegocV_tVcTx-714" target="hn4ZYdpucegocV_tVcTx-730" parent="1">
          <mxGeometry width="100" height="100" relative="1" as="geometry">
            <mxPoint x="965" y="1420" as="sourcePoint" />
            <mxPoint x="1065" y="1320" as="targetPoint" />
            <Array as="points">
              <mxPoint x="1108" y="1298" />
              <mxPoint x="1050" y="1245" />
            </Array>
          </mxGeometry>
        </mxCell>
        <mxCell id="hn4ZYdpucegocV_tVcTx-753" style="edgeStyle=orthogonalEdgeStyle;rounded=0;orthogonalLoop=1;jettySize=auto;html=1;endArrow=ERmandOne;endFill=0;startArrow=ERmandOne;startFill=0;" edge="1" source="hn4ZYdpucegocV_tVcTx-654" target="hn4ZYdpucegocV_tVcTx-704" parent="1">
          <mxGeometry relative="1" as="geometry">
            <mxPoint x="1086" y="838.5699999999999" as="sourcePoint" />
            <mxPoint x="1082" y="924.5699999999999" as="targetPoint" />
            <Array as="points">
              <mxPoint x="1194" y="862" />
              <mxPoint x="1194" y="896" />
              <mxPoint x="1037" y="896" />
            </Array>
          </mxGeometry>
        </mxCell>
        <mxCell id="hn4ZYdpucegocV_tVcTx-754" style="edgeStyle=orthogonalEdgeStyle;rounded=0;orthogonalLoop=1;jettySize=auto;html=1;endArrow=ERmandOne;endFill=0;startArrow=ERmandOne;startFill=0;" edge="1" source="hn4ZYdpucegocV_tVcTx-654" target="hn4ZYdpucegocV_tVcTx-680" parent="1">
          <mxGeometry relative="1" as="geometry">
            <mxPoint x="1262" y="872" as="sourcePoint" />
            <mxPoint x="1047" y="995" as="targetPoint" />
            <Array as="points">
              <mxPoint x="1200" y="897" />
              <mxPoint x="1200" y="1035" />
              <mxPoint x="1349" y="1035" />
            </Array>
          </mxGeometry>
        </mxCell>
        <mxCell id="hn4ZYdpucegocV_tVcTx-755" style="edgeStyle=orthogonalEdgeStyle;rounded=0;orthogonalLoop=1;jettySize=auto;html=1;endArrow=ERmandOne;endFill=0;startArrow=ERmandOne;startFill=0;" edge="1" source="hn4ZYdpucegocV_tVcTx-654" target="hn4ZYdpucegocV_tVcTx-610" parent="1">
          <mxGeometry relative="1" as="geometry">
            <mxPoint x="1543.92" y="992" as="sourcePoint" />
            <mxPoint x="1640.92" y="1170" as="targetPoint" />
            <Array as="points">
              <mxPoint x="1492" y="877" />
              <mxPoint x="1492" y="882" />
            </Array>
          </mxGeometry>
        </mxCell>
        <mxCell id="hn4ZYdpucegocV_tVcTx-756" style="edgeStyle=orthogonalEdgeStyle;rounded=0;orthogonalLoop=1;jettySize=auto;html=1;entryX=-0.018;entryY=0.123;entryDx=0;entryDy=0;entryPerimeter=0;endArrow=ERoneToMany;endFill=0;" edge="1" source="hn4ZYdpucegocV_tVcTx-654" parent="1">
          <mxGeometry relative="1" as="geometry">
            <mxPoint x="1529.7599999999998" y="1349.69" as="targetPoint" />
            <Array as="points">
              <mxPoint x="1369" y="1037" />
              <mxPoint x="1481" y="1037" />
              <mxPoint x="1481" y="1292" />
              <mxPoint x="1514" y="1292" />
              <mxPoint x="1514" y="1350" />
            </Array>
          </mxGeometry>
        </mxCell>
        <mxCell id="hn4ZYdpucegocV_tVcTx-757" style="edgeStyle=orthogonalEdgeStyle;rounded=0;orthogonalLoop=1;jettySize=auto;html=1;endArrow=ERmandOne;endFill=0;startArrow=ERmandOne;startFill=0;" edge="1" source="hn4ZYdpucegocV_tVcTx-610" target="hn4ZYdpucegocV_tVcTx-641" parent="1">
          <mxGeometry relative="1" as="geometry">
            <mxPoint x="1584" y="1161" as="sourcePoint" />
            <mxPoint x="1580" y="1247" as="targetPoint" />
            <Array as="points">
              <mxPoint x="1534" y="907" />
              <mxPoint x="1534" y="1168" />
              <mxPoint x="1600" y="1168" />
            </Array>
          </mxGeometry>
        </mxCell>
        <mxCell id="hn4ZYdpucegocV_tVcTx-758" value="" style="shape=tableRow;horizontal=0;startSize=0;swimlaneHead=0;swimlaneBody=0;fillColor=none;collapsible=0;dropTarget=0;points=[[0,0.5],[1,0.5]];portConstraint=eastwest;top=0;left=0;right=0;bottom=0;" vertex="1" parent="1">
          <mxGeometry x="1256" y="1235" width="196" height="30" as="geometry" />
        </mxCell>
        <mxCell id="hn4ZYdpucegocV_tVcTx-759" value="" style="shape=partialRectangle;connectable=0;fillColor=none;top=0;left=0;bottom=0;right=0;editable=1;overflow=hidden;whiteSpace=wrap;html=1;" vertex="1" parent="hn4ZYdpucegocV_tVcTx-758">
          <mxGeometry width="26.08701490319315" height="30" as="geometry">
            <mxRectangle width="26.08701490319315" height="30" as="alternateBounds" />
          </mxGeometry>
        </mxCell>
        <mxCell id="hn4ZYdpucegocV_tVcTx-760" value="" style="shape=tableRow;horizontal=0;startSize=0;swimlaneHead=0;swimlaneBody=0;fillColor=none;collapsible=0;dropTarget=0;points=[[0,0.5],[1,0.5]];portConstraint=eastwest;top=0;left=0;right=0;bottom=0;" vertex="1" parent="1">
          <mxGeometry x="1256" y="1175" width="196" height="30" as="geometry" />
        </mxCell>
        <mxCell id="hn4ZYdpucegocV_tVcTx-761" value="" style="shape=partialRectangle;connectable=0;fillColor=none;top=0;left=0;bottom=0;right=0;editable=1;overflow=hidden;whiteSpace=wrap;html=1;" vertex="1" parent="hn4ZYdpucegocV_tVcTx-760">
          <mxGeometry width="26.08701490319315" height="30" as="geometry">
            <mxRectangle width="26.08701490319315" height="30" as="alternateBounds" />
          </mxGeometry>
        </mxCell>
      </root>
    </mxGraphModel>
  </diagram>
</mxfile>
